<svg width="195" height="86" viewBox="0 0 195 86" fill="none" xmlns="http://www.w3.org/2000/svg">
<path d="M12.4151 73.6883L15.1181 67.0073H16.9881V79.1113H15.5941V75.2353C15.5941 72.6853 15.6111 70.6283 15.6451 69.0643C15.3731 69.8123 15.0161 70.7303 14.5741 71.8183L11.5821 79.1113H10.3581L7.34908 71.8183C6.90708 70.7303 6.55008 69.8123 6.27808 69.0643C6.31208 70.6283 6.32908 72.6853 6.32908 75.2353V79.1113H4.93508V67.0073H6.80508L9.61008 73.8923C10.0294 74.9237 10.4884 76.0853 10.9871 77.3773C11.6784 75.5413 12.1544 74.3117 12.4151 73.6883ZM40.3608 67.0073V68.2993H33.3738V72.1583H39.6808V73.4503H33.3738V77.8193H40.2928V79.1113H31.9458V67.0073H40.3608ZM54.6402 67.0073H58.7202C60.5562 67.0073 62.0068 67.54 63.0722 68.6053C64.1262 69.6707 64.6532 71.1553 64.6532 73.0593C64.6532 74.9407 64.1262 76.4197 63.0722 77.4963C61.9955 78.573 60.5448 79.1113 58.7202 79.1113H54.6402V67.0073ZM56.0682 77.8193H58.7202C60.1482 77.8193 61.2418 77.4 62.0012 76.5613C62.7718 75.7227 63.1572 74.5553 63.1572 73.0593C63.1572 71.5633 62.7718 70.396 62.0012 69.5573C61.2418 68.7187 60.1482 68.2993 58.7202 68.2993H56.0682V77.8193ZM80.5389 79.1113H79.1109V67.0073H80.5389V79.1113ZM105.637 79.1113H104.124L102.713 75.5923H97.2046L95.8106 79.1113H94.3146L99.1426 67.0073H100.741L105.637 79.1113ZM97.7656 74.1643L97.7146 74.3003H102.203L102.135 74.1473C101.851 73.456 101.115 71.5917 99.9246 68.5543C99.1199 70.7077 98.4002 72.5777 97.7656 74.1643ZM143.916 72.2093V67.0073H145.344V79.1113H143.916V73.5353H137.167V79.1113H135.739V67.0073H137.167V72.2093H143.916ZM169.659 74.6233C169.659 76.1307 169.245 77.298 168.418 78.1253C167.591 78.9527 166.418 79.3663 164.899 79.3663C163.38 79.3663 162.207 78.9527 161.38 78.1253C160.553 77.298 160.139 76.1307 160.139 74.6233V67.0073H161.567V74.6233C161.567 76.924 162.678 78.0743 164.899 78.0743C167.12 78.0743 168.231 76.924 168.231 74.6233V67.0073H169.659V74.6233ZM191.571 72.8213C192.965 73.354 193.662 74.3173 193.662 75.7113C193.662 76.7653 193.316 77.5983 192.625 78.2103C191.945 78.811 190.981 79.1113 189.735 79.1113H184.448V67.0073H189.48C190.647 67.0073 191.554 67.302 192.2 67.8913C192.846 68.4693 193.169 69.2287 193.169 70.1693C193.169 71.382 192.636 72.266 191.571 72.8213ZM189.378 68.2993H185.876V72.2943H189.378C190.16 72.2943 190.755 72.113 191.163 71.7503C191.571 71.3877 191.775 70.8777 191.775 70.2203C191.775 69.6197 191.565 69.1493 191.146 68.8093C190.738 68.4693 190.148 68.2993 189.378 68.2993ZM185.876 77.8193H189.667C190.505 77.8193 191.14 77.638 191.571 77.2753C192.013 76.9127 192.234 76.3913 192.234 75.7113C192.234 74.2833 191.372 73.5693 189.65 73.5693H185.876V77.8193Z" fill="white"/>
<path d="M17.5809 56.9143C12.7475 56.9143 8.99753 55.8309 6.33086 53.6643C3.69753 51.4976 2.36419 48.3976 2.33086 44.3643H8.98086C9.01419 46.8976 9.76419 48.7143 11.2309 49.8143C12.7309 50.9143 14.9142 51.4643 17.7809 51.4643C20.1142 51.4643 21.8975 51.0309 23.1309 50.1643C24.3642 49.2643 24.9809 47.9809 24.9809 46.3143C24.9809 44.9143 24.4475 43.8476 23.3809 43.1143C22.3475 42.3809 20.4475 41.7309 17.6809 41.1643L14.6809 40.5643C7.04753 39.1309 3.23086 35.5309 3.23086 29.7643C3.23086 26.6976 4.39753 24.2643 6.73086 22.4643C9.06419 20.6309 12.2975 19.7143 16.4309 19.7143C21.1309 19.7143 24.6809 20.7143 27.0809 22.7143C29.5142 24.7143 30.7975 27.5143 30.9309 31.1143H24.3809C24.2475 29.0809 23.5642 27.5809 22.3309 26.6143C21.1309 25.6476 19.1975 25.1643 16.5309 25.1643C14.4642 25.1643 12.8809 25.5476 11.7809 26.3143C10.6809 27.0809 10.1309 28.1643 10.1309 29.5643C10.1309 30.9976 10.6309 32.0976 11.6309 32.8643C12.6642 33.6309 14.4809 34.2809 17.0809 34.8143L20.1809 35.4143C24.3475 36.2476 27.3475 37.4976 29.1809 39.1643C31.0475 40.7976 31.9809 43.0643 31.9809 45.9643C31.9809 49.4309 30.7142 52.1309 28.1809 54.0643C25.6475 55.9643 22.1142 56.9143 17.5809 56.9143ZM67.6645 51.8143C64.3978 55.2143 60.0978 56.9143 54.7645 56.9143C49.4311 56.9143 45.1311 55.2143 41.8645 51.8143C38.5978 48.3809 36.9645 43.8809 36.9645 38.3143C36.9645 32.7476 38.5978 28.2476 41.8645 24.8143C45.1311 21.4143 49.4311 19.7143 54.7645 19.7143C60.0978 19.7143 64.3978 21.4143 67.6645 24.8143C70.8978 28.1809 72.5145 32.6809 72.5145 38.3143C72.5145 43.9476 70.8978 48.4476 67.6645 51.8143ZM44.0145 38.3143C44.0145 42.2143 44.9978 45.2976 46.9645 47.5643C48.9311 49.8309 51.5311 50.9643 54.7645 50.9643C58.0311 50.9643 60.6478 49.8309 62.6145 47.5643C64.5478 45.3309 65.5145 42.2476 65.5145 38.3143C65.5145 34.3809 64.5478 31.2976 62.6145 29.0643C60.6478 26.7976 58.0311 25.6643 54.7645 25.6643C51.5311 25.6643 48.9311 26.7976 46.9645 29.0643C44.9978 31.3309 44.0145 34.4143 44.0145 38.3143ZM95.0934 56.9143C89.96 56.9143 85.81 55.2309 82.6434 51.8643C79.4434 48.4976 77.8434 43.9809 77.8434 38.3143C77.8434 32.6143 79.4267 28.0809 82.5934 24.7143C85.7267 21.3809 89.8934 19.7143 95.0934 19.7143C99.26 19.7143 102.81 20.8309 105.743 23.0643C108.677 25.2976 110.51 28.5309 111.243 32.7643H104.393C103.793 30.4309 102.677 28.6643 101.043 27.4643C99.4434 26.2309 97.46 25.6143 95.0934 25.6143C91.9267 25.6143 89.4267 26.7476 87.5934 29.0143C85.7934 31.2476 84.8934 34.3476 84.8934 38.3143C84.8934 42.3143 85.7934 45.4309 87.5934 47.6643C89.3934 49.8976 91.8934 51.0143 95.0934 51.0143C97.56 51.0143 99.6767 50.2809 101.443 48.8143C103.21 47.3476 104.277 45.3143 104.643 42.7143H111.393C110.96 47.2476 109.193 50.7476 106.093 53.2143C103.027 55.6809 99.36 56.9143 95.0934 56.9143ZM124.824 56.1143H118.074V20.5143H124.824V56.1143ZM165.187 56.1143H158.037L155.237 48.2643H139.637L136.887 56.1143H129.937L143.487 20.5143H151.387L165.187 56.1143ZM143.037 38.6643L141.687 42.5143H153.187L151.787 38.6643C150.62 35.6976 149.153 31.6309 147.387 26.4643C145.987 30.5976 144.537 34.6643 143.037 38.6643ZM177.041 20.5143V50.0643H193.991V56.1143H170.291V20.5143H177.041Z" fill="white"/>
</svg>
