<svg width="301" height="79" viewBox="0 0 301 79" fill="none" xmlns="http://www.w3.org/2000/svg">
<path d="M60.5636 37.193C60.5636 37.193 60.7221 36.9858 61.1854 36.9005C62.3316 32.074 61.5634 34.1703 64.9165 31.2696C64.6117 32.8784 62.0267 32.5859 61.9536 34.4507C63.7582 32.8053 66.1846 32.7443 64.9287 29.5388C64.697 30.8186 61.8438 30.2579 62.1487 32.208C62.99 31.6474 64.4532 31.4524 64.8677 30.5139C63.9898 32.6834 60.9659 31.7693 61.2951 34.7797C60.6367 33.1709 59.015 32.1227 57.8689 30.1726C58.5273 31.0867 60.4538 32.8418 61.1244 33.7559C60.8318 30.6967 58.4541 31.4158 57.2714 28.4541C57.0154 32.5737 59.4906 33.4025 60.3075 34.9626C60.1612 33.7681 58.3566 32.4884 57.5762 30.1361C58.5761 33.0612 62.0999 34.085 60.5758 37.193H60.5636Z" fill="white"/>
<path d="M23.7034 56.1575C21.3745 54.5609 17.5337 56.9376 14.9975 56.0844C17.3142 56.4988 19.387 55.2434 21.2282 55.3653C18.7164 53.2202 15.2536 56.1088 12.8149 55.2434C14.9609 58.0954 19.5456 57.5104 22.1915 56.8279C20.6917 56.2063 17.4849 57.6201 15.2414 56.4013C19.5943 56.9619 22.606 55.28 26.2884 58.778C26.9468 58.5708 27.4101 58.5342 27.4101 58.5342L26.2396 57.8029C25.4226 55.5481 26.52 52.9886 25.2397 51.0995C26.6054 52.8789 26.1055 55.7553 26.3493 56.316C26.8858 55.0728 27.2272 51.5748 23.3376 49.4297C24.6179 51.9404 21.5452 53.9759 24.874 56.4988C24.5082 54.6218 25.8372 52.1355 24.2277 50.3072C26.2274 51.9526 24.8252 54.7681 25.1788 57.1204C24.5447 56.706 23.7034 56.1453 23.7034 56.1453V56.1575Z" fill="white"/>
<path d="M18.0092 52.0867C16.1315 50.5997 12.5711 53.3299 10.4738 52.0623C12.5833 52.6717 14.8024 51.1482 15.7779 51.4163C12.315 49.125 10.2909 52.8789 8.08398 50.6241C11.0225 54.7437 13.6684 53.4518 17.3873 52.9764C16.29 52.0379 12.7661 53.854 10.5348 52.4889C16.0461 53.4274 15.8998 50.5022 20.6795 54.9631C21.5818 54.8412 22.2158 55.1337 22.2158 55.1337L21.0087 54.2927C20.5332 52.6352 21.2282 49.2956 19.6065 46.9921C21.5452 48.8934 20.9599 51.6479 21.2038 52.2939C21.5818 50.7826 21.972 47.7721 17.6556 45.3345C18.8627 47.0896 17.8751 47.9915 17.9726 49.0762C18.058 50.3194 19.5211 52.2208 19.704 52.8545C19.7406 51.1238 20.1064 48.3206 18.6798 46.3095C21.0209 48.7106 19.765 51.9161 20.1918 53.7077C19.5699 53.2446 18.4847 52.4401 18.0214 52.0867H18.0092Z" fill="white"/>
<path d="M13.0589 47.967C11.5347 46.5166 7.74268 48.7958 5.77958 47.187C8.01093 48.1742 9.88867 47.0164 11.0958 47.2357C11.0958 47.2357 10.035 46.4313 8.37672 46.3216C6.71845 46.2119 6.19415 47.4795 4.31641 45.9194C5.9259 48.9786 8.30356 49.4296 12.6809 48.7471C10.6568 47.6136 8.29137 49.3077 6.34047 47.8939C11.5957 48.8324 11.364 46.5654 15.6194 51.0628C16.412 50.9409 16.8388 51.1847 16.8388 51.1847C14.1685 49.7465 16.3145 45.6391 14.8025 43.104C16.095 45.1394 15.5097 47.2479 15.6682 48.6008C16.5949 45.7854 16.4486 43.7743 13.4613 41.5073C14.3148 42.6774 12.3517 46.9554 14.6562 48.808C14.4245 46.3338 15.1927 45.4807 14.7293 43.4818C15.5341 45.7366 14.7293 47.7842 14.8025 49.5149C14.4001 49.1615 13.3881 48.2839 13.0589 47.9792V47.967Z" fill="white"/>
<path d="M7.71826 42.2143C7.71826 42.2143 7.4622 42.0315 6.90132 42.0193C3.71891 36.3396 5.02357 39.3745 0.573077 36.7296C1.52414 38.4969 3.88961 37.6681 4.66997 38.9722C1.9509 38.7163 0.0975451 38.5578 0 34.9014C0.682816 36.8149 2.79223 34.3408 3.98716 37.1928C2.93855 36.6199 1.25589 37.1197 0.475532 36.169C2.56056 38.375 4.95041 36.0471 6.24289 40.0692C6.36482 37.2659 8.01089 36.4615 8.1694 34.1458C7.76703 36.108 6.16973 37.2415 5.97464 39.2404C4.47488 35.1817 7.77922 35.2427 8.21817 32.415C9.70574 34.9624 8.43765 37.6316 7.1086 40.1301C7.2915 37.3147 8.68151 37.1928 8.44984 34.5358C8.26695 37.1197 5.40156 39.5938 7.71826 42.2265V42.2143Z" fill="white"/>
<path d="M4.77964 37.193C4.77964 37.193 4.62113 36.9858 4.15779 36.9005C3.01163 32.074 3.7798 34.1825 0.426687 31.2696C0.731516 32.8784 3.31646 32.5859 3.38962 34.4507C1.58503 32.8053 -0.841399 32.7443 0.414494 29.5388C0.646164 30.8186 3.49936 30.2579 3.19453 32.208C2.3532 31.6474 0.890026 31.4524 0.463267 30.5139C1.34117 32.6834 4.36507 31.7693 4.03586 34.7797C4.69428 33.1709 6.31597 32.1227 7.47432 30.1726C6.81589 31.0867 4.88938 32.8418 4.21875 33.7559C4.51139 30.6967 6.88905 31.4158 8.07178 28.4541C8.34003 32.5737 5.85263 33.4025 5.03569 34.9626C5.18201 33.7681 6.98659 32.4884 7.76696 30.1361C6.76712 33.0612 3.2433 34.085 4.76744 37.193H4.77964Z" fill="white"/>
<path d="M10.8399 45.8219C10.1449 44.2374 11.7422 41.5439 10.7424 38.9112C11.8642 41.7511 10.9497 42.8846 10.9131 44.6153C12.7543 41.9339 11.2301 38.4603 9.70598 36.4614C10.1571 40.971 7.52341 41.1051 9.65721 44.2253C9.53528 42.8968 11.0838 41.6536 10.1815 38.1921C11.3886 41.3732 9.86449 42.592 10.023 44.9809C8.10868 41.2757 4.81653 43.9206 2.45106 42.1045C4.07275 43.0552 5.49935 42.1655 6.91375 42.4092C4.47513 40.5201 2.68273 42.3239 1.5 40.9101C2.19501 44.3837 5.414 44.2374 8.03552 44.0302C6.51138 43.0552 3.71915 44.1643 2.71931 42.6774C7.06007 44.0668 7.45025 42.1777 10.9863 46.8579C11.535 46.8335 11.9495 46.9554 11.9495 46.9554L10.8277 45.8341L10.8399 45.8219Z" fill="white"/>
<path d="M3.68218 29.7577C3.91385 28.7096 2.17023 28.6608 1.30452 27.3567C1.48741 28.7461 3.76753 28.8071 3.4627 30.0381C1.98733 28.4658 0.085202 28.5755 1.47522 25.7722C1.08504 27.5029 3.86507 26.6742 3.92604 28.6364C3.13349 27.7101 1.80443 28.1245 1.38987 26.857C1.10943 27.9052 4.96246 28.6608 4.06016 30.0137C4.62105 29.0265 6.90117 28.0514 7.79126 26.7595C6.76704 27.7833 5.66966 28.1123 4.45034 28.9899C5.20632 26.796 8.18144 26.9545 8.65698 25.3091C8.10829 29.1971 6.04765 29.1118 4.82833 30.294C5.47457 29.3921 7.27915 28.3927 7.76688 27.2592C6.77923 28.4902 3.37735 30.0746 3.8163 32.3416C3.8163 32.3416 3.74314 32.1222 3.40174 31.915C3.4627 31.2691 3.49928 30.6597 3.68218 29.7456V29.7577Z" fill="white"/>
<path d="M4.92598 26.3937C6.316 25.2359 7.99865 25.2724 8.34006 24.4315C7.51092 25.1018 6.3038 25.0774 5.38932 25.8453C6.55986 24.0292 8.18155 24.6143 9.16919 23.432C9.23016 24.9921 7.25487 26.2475 5.54783 26.8691C5.87704 26.0403 7.7304 25.894 8.31567 24.8337C7.26706 25.8453 4.26755 26.4059 4.36509 28.4657C4.36509 28.4657 4.36509 28.2707 4.06027 28.0513C5.09668 25.7478 3.91395 25.9184 2.48735 24.3218C2.86534 25.5528 4.60896 25.8331 4.26755 26.7106C3.25552 25.6868 1.38997 25.1627 2.53612 23.0542C2.53612 24.273 4.82843 23.9196 4.69431 25.4309C4.36509 24.8215 3.14578 24.8337 2.52393 23.9439C2.82876 24.9921 5.23081 25.4553 4.93817 26.3937H4.92598Z" fill="white"/>
<path d="M8.94996 16.3511C9.70594 15.8148 10.9496 15.3882 11.7788 14.9251C11.4496 15.0347 10.3522 15.3151 9.9498 15.5954C10.7911 14.4375 12.0714 14.7057 13.3029 13.8281C12.5226 15.9854 10.5473 15.8026 10.1449 16.217C10.6204 15.766 11.9739 15.3516 12.4128 14.8154C11.035 15.8148 9.29137 15.827 8.66952 17.3261C8.66952 17.3261 8.58417 17.2408 8.41347 17.2286C9.12067 16.2048 8.36469 16.0951 7.6453 14.8275C7.6453 15.5588 8.55978 16.0707 8.45004 16.5217C8.03548 15.6563 6.81616 15.5101 7.6453 13.8647C7.6453 14.4619 8.99874 14.791 8.92558 15.8879C8.75487 15.3395 7.68188 14.8397 7.60872 14.3278C7.88916 15.2663 9.01093 15.7295 8.93777 16.3511H8.94996Z" fill="white"/>
<path d="M10.1324 14.2543C10.4128 13.7546 9.54713 13.1696 9.25449 12.6577C9.40081 13.0477 10.0227 13.6815 9.97389 14.035C9.60809 13.4865 8.30343 12.6333 9.27888 11.4998C9.36423 12.4383 10.1446 12.2311 10.3641 13.2915C10.0349 12.8527 9.53493 12.8283 9.13256 12.0361C9.40081 12.8649 10.2177 13.1208 10.4738 13.779C11.1688 13.2062 12.7295 12.7674 13.3148 12.3408C12.7417 12.5846 11.937 12.8649 11.4249 13.133C12.632 11.9508 13.4489 12.1824 14.7414 11.3901C13.7538 13.4743 12.0467 13.2915 11.7663 13.584C12.0955 13.2062 13.327 12.7552 13.6318 12.4017C12.0467 13.389 10.5104 13.6206 10.108 14.8272C10.0349 14.7297 9.87634 14.7175 9.87634 14.7175C9.97389 14.5469 10.1324 14.2422 10.1324 14.2422V14.2543Z" fill="white"/>
<path d="M7.77931 18.6301C7.4501 17.7038 6.34052 17.4357 6.2064 16.2412C6.49903 17.1431 7.30378 17.2285 7.52326 17.9476C7.60861 16.6312 6.30394 16.5337 6.29175 15.6196C5.18217 17.3747 6.64535 18.0694 7.19404 18.9957C7.35255 18.496 6.30394 17.7038 6.12105 16.9116C6.7429 18.0451 7.92563 18.8495 7.0843 19.8245C7.25501 19.983 7.29159 20.117 7.29159 20.117C7.84028 18.0938 10.1814 18.1426 11.5592 16.8994C10.9495 17.7404 9.03521 18.2035 8.3402 18.8982C9.26688 18.2035 11.3885 18.5326 12.2176 16.0218C11.5592 16.8994 9.16933 16.8506 8.37678 18.1304C9.35223 17.4966 10.4618 17.326 11.5104 16.7409C10.6569 17.3869 8.90108 17.8379 7.77931 18.6301Z" fill="white"/>
<path d="M6.57191 21.7871C7.31569 20.8852 9.19343 20.5561 10.0835 19.703C9.20563 20.6658 7.34008 21.2996 7.04744 21.6774C7.6449 21.3849 10.1445 21.2387 11.1809 18.4598C9.83967 19.5811 8.41307 19.2642 7.49859 20.5196C8.02289 20.1905 9.05931 20.1295 10.0226 19.3983C9.0715 20.3367 7.48639 20.5683 6.70603 21.0558C6.35243 20.288 5.25505 19.6786 4.96241 18.8985C5.54769 19.703 6.16953 19.8248 6.63287 20.5074C6.42559 18.9351 5.05996 19.0204 4.96241 18.021C3.926 19.2642 5.35259 20.5927 6.12076 21.519C6.20611 20.8243 4.91364 19.9589 4.84048 19.0082C5.38917 20.2514 7.01086 21.129 5.91348 22.5428C6.12076 22.6769 6.15734 22.8231 6.15734 22.8231C6.29147 22.494 6.5841 21.7627 6.5841 21.7627L6.57191 21.7871Z" fill="white"/>
<path d="M5.84036 23.7369C6.133 22.9691 3.98701 22.3231 3.76753 21.0677C4.20648 22.1403 5.12097 22.0306 5.49896 22.7741C5.73063 21.4334 3.58463 21.2871 3.92604 20.0439C2.68234 21.8844 3.68218 22.5913 5.21851 23.932C5.23071 23.0178 3.66998 22.7863 3.68218 21.3846C4.71859 23.0057 6.05984 23.3225 5.01123 24.9923C5.18193 25.1995 5.26729 25.3702 5.26729 25.3702C5.45018 23.5785 7.81565 23.3957 9.1569 22.1037C8.37654 23.2616 6.85239 23.5297 6.55976 23.9807C7.58398 23.4566 9.40076 23.5297 9.98603 21.0312C8.59601 22.2378 7.34012 21.7868 6.40125 23.1275C7.21819 22.5547 8.40092 22.4572 9.13251 21.994C8.19364 22.7619 6.46221 23.0666 5.84036 23.7248" fill="white"/>
<path d="M39.6397 66.6392L40.1031 65.7982C35.3234 64.2625 30.946 58.3757 25.8615 59.692C24.8617 60.143 21.9963 61.313 19.7771 59.9601C22.4474 61.0693 25.7396 59.1801 26.4102 59.241C22.3743 56.84 21.5817 60.7767 17.8628 58.7901C20.9598 62.6293 24.3252 62.3612 27.1296 60.6305C26.0444 60.4233 23.4473 62.41 20.4477 60.5817C23.935 62.1906 27.0808 59.3142 28.5562 60.2405C32.1897 62.4953 35.9086 64.616 39.6519 66.6636L39.6397 66.6392Z" fill="white"/>
<path d="M11.3031 12.2802C11.3031 12.2802 11.0958 12.3411 10.9617 12.4265C11.7055 11.7074 10.5715 11.2198 10.2789 10.6836C10.3764 11.232 11.0227 11.3539 10.9251 11.9146C10.6447 11.037 9.48633 11.0248 10.3277 9.89133C10.4984 10.5739 11.3397 10.647 11.4006 11.4392C11.108 10.8054 10.5837 10.842 10.3277 10.1473C10.2545 10.7689 11.5592 11.427 11.3641 11.7439C11.6689 11.232 12.9979 10.9273 13.7539 10.5007C13.4125 10.5861 12.559 10.9273 12.3761 10.9395C12.9979 10.452 14.5587 10.1229 15.5463 9.40381C15.0708 10.001 14.4367 10.7323 13.1199 11.0736C13.1199 11.0736 13.8637 10.6957 14.2051 10.4276C13.1199 11.037 11.5714 11.3783 11.3031 12.2802Z" fill="white"/>
<path d="M12.6931 10.1476C12.6931 10.1476 12.5102 10.1963 12.3883 10.2694C13.0467 9.66004 12.0712 9.20908 11.8274 8.73374C11.9005 9.20908 12.4736 9.33096 12.3761 9.81849C12.1566 9.05063 11.1324 9.01407 11.8883 8.03902C12.0347 8.63624 12.7662 8.70937 12.7906 9.40409C12.5468 8.84344 12.0834 8.86781 11.8762 8.24622C11.803 8.7825 12.9248 9.3919 12.7541 9.66004C13.0345 9.22127 14.1928 8.97751 14.8635 8.62405C14.5586 8.68499 13.8149 8.97751 13.6442 8.97751C14.1928 8.56311 15.5585 8.30716 16.4364 7.69775C16.0096 8.20965 15.4365 8.84344 14.2904 9.11157C14.2904 9.11157 14.9488 8.79468 15.2536 8.56311C14.2904 9.07501 12.937 9.34315 12.6809 10.1232L12.6931 10.1476Z" fill="white"/>
<path d="M41.6393 56.1575C43.9682 54.5609 47.8091 56.9376 50.3452 56.0844C48.0285 56.4988 45.9557 55.2434 44.1145 55.3653C46.6263 53.2202 50.0892 56.1088 52.5278 55.2434C50.3818 58.0954 45.7972 57.5104 43.1513 56.8279C44.651 56.2063 47.8578 57.6201 50.1014 56.4013C45.7484 56.9619 42.7367 55.28 39.0544 58.778C38.396 58.5708 37.9326 58.5342 37.9326 58.5342L39.1032 57.8029C39.9201 55.5481 38.8227 52.9886 40.103 51.0995C38.7374 52.8789 39.2373 55.7553 38.9934 56.316C38.4569 55.0728 38.1155 51.5748 42.0051 49.4297C40.7248 51.9404 43.7975 53.9759 40.481 56.4988C40.8468 54.6218 39.5177 52.1355 41.1272 50.3072C39.1397 51.9526 40.5298 54.7681 40.1762 57.1204C40.8102 56.706 41.6515 56.1453 41.6515 56.1453L41.6393 56.1575Z" fill="white"/>
<path d="M47.3458 52.0867C49.2235 50.5997 52.7839 53.3299 54.8811 52.0623C52.7717 52.6717 50.5648 51.1482 49.5771 51.4163C53.04 49.125 55.0519 52.8789 57.271 50.6241C54.3325 54.7437 51.6744 53.4518 47.9676 52.9764C49.065 52.0379 52.601 53.854 54.8202 52.4889C49.3089 53.4274 49.4552 50.5022 44.6755 54.9631C43.7732 54.8412 43.1392 55.1337 43.1392 55.1337L44.3463 54.2927C44.8218 52.6352 44.1268 49.2956 45.7485 46.9921C43.8098 48.8934 44.3951 51.6479 44.1512 52.2939C43.7732 50.7826 43.383 47.7721 47.6994 45.3345C46.4923 47.0896 47.4799 47.9915 47.3824 49.0762C47.297 50.3194 45.8338 52.2208 45.6509 52.8545C45.6144 51.1238 45.2486 48.3206 46.6752 46.3095C44.3341 48.7106 45.59 51.9161 45.1632 53.7077C45.7851 53.2446 46.8703 52.4401 47.3336 52.0867H47.3458Z" fill="white"/>
<path d="M52.2965 47.967C53.8206 46.5166 57.6127 48.7958 59.5758 47.187C57.3444 48.1742 55.4667 47.0164 54.2596 47.2357C54.2596 47.2357 55.3082 46.4313 56.9786 46.3216C58.6369 46.2119 59.1612 47.4795 61.039 45.9194C59.4295 48.9786 57.0518 49.4296 52.6745 48.7471C54.6985 47.6136 57.064 49.3077 59.0149 47.8939C53.7597 48.8324 53.9913 46.5654 49.7359 51.0628C48.9434 50.9409 48.5166 51.1847 48.5166 51.1847C51.1991 49.7465 49.0409 45.6391 50.5529 43.104C49.2604 45.1394 49.8457 47.2479 49.6871 48.6008C48.7605 45.7854 48.9068 43.7743 51.8819 41.5073C51.0284 42.6774 52.9915 46.9676 50.6992 48.808C50.9308 46.3338 50.1627 45.4807 50.626 43.4818C49.8091 45.7366 50.626 47.7842 50.5529 49.5149C50.9552 49.1615 51.9673 48.2839 52.2965 47.9792V47.967Z" fill="white"/>
<path d="M57.637 42.2143C57.637 42.2143 57.8931 42.0315 58.454 42.0193C61.6364 36.3396 60.3317 39.3745 64.7822 36.7296C63.8311 38.4969 61.4657 37.6681 60.6975 38.9722C63.4166 38.7163 65.2699 38.5578 65.3553 34.9014C64.6725 36.8149 62.5631 34.3408 61.3681 37.1928C62.4167 36.6199 64.0994 37.1197 64.8797 36.169C62.7947 38.375 60.4049 36.0471 59.1124 40.0692C58.9905 37.2659 57.3444 36.4615 57.1859 34.1458C57.5883 36.108 59.1856 37.2415 59.3806 39.2404C60.8804 35.1817 57.5761 35.2427 57.1371 32.415C55.6495 34.9624 56.9176 37.6316 58.2467 40.1301C58.0638 37.3147 56.6738 37.1928 56.9054 34.5358C57.0883 37.1197 59.9537 39.5938 57.637 42.2265V42.2143Z" fill="white"/>
<path d="M54.5153 45.8219C55.2103 44.2374 53.613 41.5439 54.6129 38.9112C53.4911 41.7511 54.4056 42.8846 54.4422 44.6153C52.601 41.9339 54.1252 38.4603 55.6493 36.4614C55.1982 40.971 57.8319 41.1051 55.6981 44.2253C55.82 42.8968 54.2715 41.6536 55.1738 38.1921C53.9666 41.3732 55.4908 42.592 55.3323 44.9809C57.2466 41.2757 60.5387 43.9206 62.9042 42.1045C61.2825 43.0552 59.8559 42.1655 58.4415 42.4092C60.8802 40.5201 62.6725 42.3239 63.8553 40.9101C63.1725 44.3837 59.9413 44.2374 57.3198 44.0302C58.8439 43.0552 61.6361 44.1643 62.6238 42.6774C58.283 44.0668 57.8928 42.1777 54.369 46.8579C53.8203 46.8335 53.4058 46.9554 53.4058 46.9554L54.5275 45.8341L54.5153 45.8219Z" fill="white"/>
<path d="M61.673 29.7577C61.4414 28.7096 63.185 28.6608 64.0507 27.3567C63.8678 28.7461 61.5877 28.8071 61.8925 30.0381C63.3679 28.4658 65.2822 28.5755 63.88 25.7722C64.2702 27.5029 61.4901 26.6742 61.4292 28.6364C62.2217 27.7101 63.5508 28.1245 63.9654 26.857C64.2458 27.9052 60.405 28.6608 61.2951 30.0137C60.7342 29.0265 58.4541 28.0514 57.564 26.7595C58.5882 27.7833 59.6856 28.1123 60.9049 28.9899C60.1489 26.796 57.1738 26.9545 56.6982 25.3091C57.2469 29.1971 59.3076 29.1118 60.5269 30.294C59.8807 29.3921 58.0761 28.3927 57.5883 27.2592C58.576 28.4902 61.9779 30.0746 61.5389 32.3416C61.5389 32.3416 61.6121 32.1222 61.9535 31.915C61.8925 31.2691 61.8559 30.6597 61.673 29.7456V29.7577Z" fill="white"/>
<path d="M60.4292 26.3937C59.0513 25.2359 57.3565 25.2724 57.0151 24.4315C57.8442 25.1018 59.0513 25.0774 59.9658 25.8453C58.7953 24.0292 57.1736 24.6143 56.1859 23.432C56.125 24.9921 58.1003 26.2475 59.8073 26.8691C59.4781 26.0403 57.6247 25.894 57.0395 24.8337C58.0881 25.8453 61.0876 26.4059 60.99 28.4657C60.99 28.4657 60.99 28.2707 61.2949 28.0513C60.2585 25.7478 61.4412 25.9184 62.8678 24.3218C62.4898 25.5528 60.7462 25.8331 61.0876 26.7106C62.0752 25.76 63.9774 25.0409 62.819 23.0542C62.819 24.273 60.5267 23.9196 60.6608 25.4309C60.99 24.8215 62.2094 24.8337 62.8312 23.9439C62.5386 24.9921 60.1243 25.4553 60.417 26.3937H60.4292Z" fill="white"/>
<path d="M56.4052 16.3511C55.6492 15.8148 54.4055 15.3882 53.5764 14.9251C53.9056 15.0347 55.003 15.3151 55.4054 15.5954C54.564 14.4375 53.2838 14.7057 52.0522 13.8281C52.8326 15.9854 54.8079 15.8026 55.2103 16.217C54.7347 15.766 53.3813 15.3516 52.9302 14.8154C54.308 15.8148 56.0516 15.827 56.6734 17.3261C56.6734 17.3261 56.7588 17.2408 56.9295 17.2286C56.2223 16.2048 56.9783 16.0951 57.6977 14.8275C57.6977 15.5588 56.7832 16.0707 56.8929 16.5217C57.3075 15.6563 58.5268 15.5101 57.6977 13.8647C57.6977 14.4619 56.3442 14.791 56.4174 15.8879C56.5881 15.3395 57.6611 14.8397 57.7342 14.3278C57.4538 15.2663 56.332 15.7295 56.4052 16.3511Z" fill="white"/>
<path d="M55.2228 14.2543C54.9423 13.7546 55.8081 13.1696 56.1007 12.6577C55.9544 13.0477 55.3325 13.6815 55.3813 14.035C55.7471 13.4865 57.0518 12.6333 56.0763 11.4998C55.991 12.4383 55.2106 12.2311 54.9911 13.2915C55.3203 12.8527 55.8203 12.8283 56.2226 12.0361C55.9544 12.8649 55.1374 13.1208 54.8814 13.779C54.1864 13.2062 52.6378 12.7674 52.0526 12.3408C52.6256 12.5846 53.4304 12.8649 53.9425 13.133C52.7354 11.9508 51.9184 12.1824 50.626 11.3901C51.6136 13.4743 53.3207 13.2915 53.5889 13.584C53.2597 13.2062 52.0282 12.7552 51.7234 12.4017C53.3085 13.389 54.8448 13.6084 55.2472 14.8272C55.3203 14.7297 55.4667 14.7175 55.4667 14.7175C55.3691 14.5469 55.2106 14.2422 55.2106 14.2422L55.2228 14.2543Z" fill="white"/>
<path d="M57.576 18.6301C57.9052 17.7038 59.0148 17.4357 59.1489 16.2412C58.8563 17.1431 58.0515 17.2285 57.832 17.9476C57.7467 16.6312 59.0514 16.5337 59.0635 15.6196C60.1731 17.3747 58.7099 18.0694 58.1613 18.9957C58.0027 18.496 59.0514 17.7038 59.2343 16.9116C58.6124 18.0451 57.4297 18.8495 58.2588 19.8245C58.0881 19.983 58.0515 20.117 58.0515 20.117C57.5028 18.0938 55.1617 18.1426 53.7839 16.8994C54.3936 17.7404 56.3079 18.2035 57.0029 18.8982C56.0762 18.2035 53.9546 18.5326 53.1255 16.0218C53.7839 16.8994 56.1738 16.8506 56.9663 18.1304C55.9909 17.4966 54.8813 17.326 53.8327 16.7409C54.6862 17.3869 56.442 17.8379 57.5638 18.6301H57.576Z" fill="white"/>
<path d="M58.7833 21.7871C58.0395 20.8852 56.1618 20.5561 55.2717 19.703C56.1496 20.6658 58.0152 21.2996 58.3078 21.6774C57.7103 21.3849 55.2107 21.2387 54.1743 18.4598C55.5156 19.5811 56.9422 19.2642 57.8566 20.5196C57.3323 20.1905 56.2959 20.1295 55.3327 19.3983C56.2837 20.3367 57.8688 20.5683 58.6492 21.0558C59.0028 20.288 60.1002 19.6786 60.3928 18.8985C59.8075 19.703 59.1857 19.8248 58.7224 20.5074C58.9296 18.9351 60.2953 19.0204 60.3928 18.021C61.4292 19.2642 60.0026 20.5927 59.2345 21.519C59.1491 20.8243 60.4416 19.9589 60.5269 19.0082C59.9782 20.2514 58.3566 21.1412 59.4539 22.5428C59.2467 22.6769 59.1979 22.8231 59.1979 22.8231C59.0638 22.494 58.7711 21.7627 58.7711 21.7627L58.7833 21.7871Z" fill="white"/>
<path d="M59.5026 23.7369C59.21 22.9691 61.356 22.3231 61.5754 21.0677C61.1365 22.1403 60.2098 22.0306 59.844 22.7741C59.6123 21.4334 61.7583 21.2871 61.4169 20.0439C62.6606 21.8844 61.6608 22.5913 60.1245 23.932C60.1123 23.0178 61.673 22.7863 61.6608 21.3846C60.6122 23.0057 59.2831 23.3225 60.3317 24.9923C60.161 25.1995 60.0757 25.3702 60.0757 25.3702C59.8928 23.5785 57.5273 23.3957 56.1861 22.1037C56.9664 23.2616 58.4906 23.5297 58.7832 23.9807C57.759 23.4566 55.9422 23.5297 55.3569 21.0312C56.747 22.2378 58.0028 21.7868 58.9417 23.1275C58.1248 22.5547 56.942 22.4572 56.2104 21.994C57.1493 22.7619 58.8929 23.0666 59.5026 23.7248" fill="white"/>
<path d="M25.7153 66.6392L25.252 65.7982C30.0317 64.2625 34.409 58.3757 39.4935 59.692C40.4934 60.143 43.3588 61.313 45.5779 59.9601C42.9076 61.0693 39.6155 59.1801 38.9448 59.241C42.9808 56.84 43.7611 60.7767 47.4922 58.7901C44.3952 62.6293 41.0299 62.3612 38.2255 60.6305C39.3106 60.4233 41.9078 62.41 44.9073 60.5817C41.4201 62.1906 38.2742 59.3142 36.7989 60.2405C33.1775 62.4953 29.4464 64.616 25.7031 66.6636L25.7153 66.6392Z" fill="white"/>
<path d="M54.0401 12.2802C54.0401 12.2802 54.2474 12.3411 54.3815 12.4265C53.6377 11.7195 54.7595 11.2198 55.0643 10.6836C54.9668 11.232 54.3205 11.3539 54.4181 11.9146C54.6985 11.037 55.8569 11.0248 55.0156 9.89133C54.8448 10.5739 54.0035 10.647 53.9426 11.4392C54.2352 10.8054 54.7595 10.842 55.0156 10.1473C55.0887 10.7689 53.784 11.427 53.9791 11.7439C53.6743 11.232 52.3453 10.9273 51.5893 10.5007C51.9307 10.5861 52.7842 10.9273 52.9793 10.9395C52.3575 10.452 50.7967 10.1229 49.8091 9.40381C50.2846 10.001 50.9187 10.7323 52.2355 11.0736C52.2355 11.0736 51.4917 10.6957 51.1503 10.4276C52.2355 11.037 53.784 11.3783 54.0523 12.2802H54.0401Z" fill="white"/>
<path d="M52.6622 10.1476C52.6622 10.1476 52.8451 10.1963 52.9549 10.2694C52.2964 9.66004 53.2719 9.20908 53.5157 8.73374C53.4426 9.20908 52.8695 9.33096 52.9671 9.81849C53.1865 9.05063 54.2108 9.01407 53.4548 8.03902C53.3085 8.63624 52.5769 8.70937 52.5525 9.40409C52.7963 8.84344 53.2597 8.86781 53.467 8.24622C53.5401 8.7825 52.4184 9.3919 52.5891 9.66004C52.3086 9.22127 51.1503 8.97751 50.4797 8.62405C50.7845 8.68499 51.5283 8.97751 51.699 8.97751C51.1503 8.56311 49.7846 8.30716 48.9067 7.69775C49.3335 8.20965 49.9066 8.84344 51.0527 9.11157C51.0527 9.11157 50.3943 8.79468 50.0895 8.56311C51.0527 9.07501 52.4062 9.34315 52.6622 10.1232V10.1476Z" fill="white"/>
<path d="M36.4576 14.5593C30.8853 15.3759 20.0334 2.07871 29.3368 0.287058C34.909 -0.529545 45.7609 12.7677 36.4576 14.5593Z" fill="white"/>
<g style="mix-blend-mode:multiply" opacity="0.75">
<path d="M36.4576 14.5593C30.8853 15.3759 20.0334 2.07871 29.3368 0.287058C34.909 -0.529545 45.7609 12.7677 36.4576 14.5593Z" fill="white"/>
</g>
<path d="M32.9459 16.7779C41.2007 17.8139 48.6263 14.4865 51.7112 21.0559C52.6988 23.591 52.2477 26.3455 47.407 26.8818C44.127 27.1987 43.0906 28.5394 43.0906 30.5748V38.6921C43.4564 46.59 38.0061 46.1634 38.3597 38.6921C37.7378 32.5371 40.1155 28.6003 36.0186 27.6009C32.0436 28.4175 34.5188 37.4977 33.8238 39.8987C33.9702 45.2006 28.849 45.6028 29.0319 39.8987C29.0563 36.352 28.91 32.1715 28.91 30.5748C29.4587 26.8331 24.1425 26.5162 24.4229 30.5748C24.4229 33.1465 24.301 38.4971 24.1425 39.8134C24.2035 43.8233 19.6432 44.2377 19.6066 39.8743C18.5824 34.1581 21.9111 27.4668 16.9973 23.8226C15.6439 23.1523 14.9245 22.0188 14.5831 21.0071C11.1812 15.2665 31.4706 17.0948 32.9337 16.7657" fill="white"/>
<g style="mix-blend-mode:multiply" opacity="0.75">
<path d="M32.9459 16.7779C41.2007 17.8139 48.6263 14.4865 51.7112 21.0559C52.6988 23.591 52.2477 26.3455 47.407 26.8818C44.127 27.1987 43.0906 28.5394 43.0906 30.5748V38.6921C43.4564 46.59 38.0061 46.1634 38.3597 38.6921C37.7378 32.5371 40.1155 28.6003 36.0186 27.6009C32.0436 28.4175 34.5188 37.4977 33.8238 39.8987C33.9702 45.2006 28.849 45.6028 29.0319 39.8987C29.0563 36.352 28.91 32.1715 28.91 30.5748C29.4587 26.8331 24.1425 26.5162 24.4229 30.5748C24.4229 33.1465 24.301 38.4971 24.1425 39.8134C24.2035 43.8233 19.6432 44.2377 19.6066 39.8743C18.5824 34.1581 21.9111 27.4668 16.9973 23.8226C15.6439 23.1523 14.9245 22.0188 14.5831 21.0071C11.1812 15.2665 31.4706 17.0948 32.9337 16.7657" fill="white"/>
</g>
<g style="mix-blend-mode:hard-light">
<path d="M20.6795 42.6166C17.5092 37.4122 21.6427 29.5753 18.3262 24.7975C21.8622 29.5143 17.7653 37.2294 20.6795 42.6166ZM14.7414 21.1655C11.3395 15.4127 31.6289 17.2531 33.0921 16.924C40.6762 17.375 45.8461 16.2415 50.4063 18.6791C45.9192 15.9734 40.5665 17.2775 32.9579 16.7778C30.4584 17.1678 7.99859 14.7911 15.8754 23.0303C15.3267 22.4574 14.9609 21.7871 14.7414 21.1655ZM38.518 38.8504C38.0547 31.9642 39.5544 31.8666 37.6401 28.2712C39.6642 30.2822 36.811 40.5446 39.591 43.9085C38.8716 43.1041 38.518 41.4831 38.518 38.8383V38.8504ZM29.1903 40.0571C28.7879 34.999 29.9706 31.306 28.3002 28.2224C30.2755 31.3426 27.4832 39.5939 30.0926 43.5063C29.5439 42.8969 29.1903 41.8 29.1903 40.0449V40.0571Z" fill="white"/>
</g>
<g style="mix-blend-mode:hard-light">
<path d="M29.3125 10.9513C21.5577 3.1997 28.6297 -4.01566 36.5308 3.9188C28.3614 -4.43006 21.2894 3.33377 29.4344 11.0732C29.3978 11.0367 29.3491 11.0001 29.3125 10.9513Z" fill="white"/>
</g>
<path d="M5.02345 60.8501C5.36486 60.5089 5.19416 60.3261 4.9381 60.0579L5.07223 59.936C5.52337 60.4236 5.93794 60.8501 6.42566 61.3255L6.29154 61.4474C5.70627 60.3139 3.5115 63.5925 3.01159 63.7631C2.67018 64.1044 2.84088 64.2872 3.09694 64.5553L2.96281 64.6772C2.49947 64.1897 2.0971 63.7631 1.60938 63.2878L1.7435 63.1659C2.32877 64.2994 4.52353 61.0208 5.02345 60.8501Z" fill="white"/>
<path d="M7.35228 68.5406L7.23035 68.4431L6.93771 63.1047C6.5963 63.8604 3.92601 65.7861 5.23067 66.5052L5.12093 66.6393C4.65759 66.2493 4.18206 65.8471 3.69434 65.4814L3.80407 65.3352C4.13329 65.6033 4.37715 65.7983 4.92584 65.128C5.21848 64.4211 7.82781 62.5928 6.52314 61.825L6.63288 61.6909C6.93771 61.9591 7.24254 62.2028 7.55956 62.4466C7.52298 63.4704 7.76684 66.2493 7.82781 67.5168C8.12044 66.7855 10.7664 64.9939 9.4373 64.2139L9.54704 64.0798C9.98599 64.4576 10.4493 64.8355 10.9127 65.1889L10.8029 65.323C10.0226 64.2504 7.86439 68.2847 7.32789 68.5528L7.35228 68.5406Z" fill="white"/>
<path d="M9.51076 68.5527L9.64488 68.638C9.12058 69.6984 10.5716 70.905 11.3031 69.7959C11.986 68.7112 10.0473 67.9555 10.9008 66.5661C11.5592 65.4569 12.8151 65.9688 13.5345 66.7245L13.1687 67.5289L13.0346 67.4436C13.5223 66.4929 12.0225 65.6641 11.5104 66.6392C10.8276 67.7239 12.8273 68.5527 11.986 69.8934C11.2544 71.0391 9.68146 70.4419 9.09619 69.4668L9.51076 68.5405V68.5527Z" fill="white"/>
<path d="M14.4243 67.2485C15.4486 67.8945 17.5702 68.2235 16.8995 69.9786C16.4728 70.8562 15.351 70.8806 14.656 70.4052L14.7536 70.198C16.3143 71.1853 16.9971 68.126 15.4729 68.0163C15.4729 68.5526 12.827 72.0384 14.1195 72.2456L14.0464 72.4041C13.4367 72.0994 12.9246 71.8312 12.3027 71.5509L12.3759 71.3925C12.7051 71.5509 12.949 71.6606 13.1563 71.2218C13.1928 70.6124 15.5217 67.7238 14.339 67.3948L14.4121 67.2241L14.4243 67.2485Z" fill="white"/>
<path d="M18.4117 69.8082C18.5824 69.3573 18.3386 69.2598 17.9971 69.1257L18.0581 68.9551C18.68 69.211 19.2287 69.4182 19.8627 69.6498L19.8017 69.8204C18.7897 69.0404 18.18 72.9284 17.8021 73.294C17.6314 73.745 17.8752 73.8425 18.2166 73.9766L18.1557 74.1472C17.5338 73.8913 16.9851 73.6841 16.3511 73.4525L16.412 73.2819C17.4241 74.0619 18.0337 70.1617 18.4117 69.8082Z" fill="white"/>
<path d="M20.9842 72.6719C20.9598 73.1838 19.9844 74.817 21.033 74.8658L20.9842 75.0364C20.338 74.8414 19.7771 74.683 19.1187 74.5245L19.1674 74.3539C20.2526 75.0242 20.4721 71.0753 20.8135 70.6974C20.9354 70.2343 20.6916 70.1612 20.338 70.0515L20.3867 69.8687C22.4108 70.0637 25.4103 71.8797 22.2523 72.8669C22.8741 74.3051 22.6181 74.9877 23.6301 75.5605L23.5813 75.7311C23.2277 75.6214 22.8741 75.5239 22.5205 75.4386C22.0938 74.6098 21.8621 73.7079 21.5817 72.8304L20.972 72.6597L20.9842 72.6719ZM21.9962 70.5512C21.8255 70.5024 21.7158 70.4902 21.5817 70.4781L21.0452 72.4282C22.5693 73.3057 23.752 71.0143 21.984 70.5512H21.9962Z" fill="white"/>
<path d="M26.337 73.5134C26.8003 73.6231 27.9586 73.8059 27.8977 73.1356H28.0318C27.9343 73.55 27.8611 74.2203 27.8123 74.6713L27.6782 74.6469C27.9099 73.684 26.8734 73.9522 26.3004 73.7815C26.3126 74.4641 25.581 76.012 26.7027 75.9876C27.4587 76.0973 28.0806 76.2314 28.4829 75.366L28.6415 75.4147C28.4829 75.7438 28.3366 76.0729 28.2147 76.4142C27.032 76.2435 25.8492 76.0485 24.6543 75.9023L24.6787 75.7194C25.9102 76.1826 25.5444 72.5871 25.8736 72.0143C25.9468 71.4536 25.8492 71.417 25.3127 71.3195L25.3371 71.1367C26.4467 71.3195 27.5563 71.4658 28.678 71.6121L28.5317 72.6237H28.3854C28.4708 71.6364 27.3612 71.6486 26.6174 71.5389L26.337 73.4768V73.5134Z" fill="white"/>
<path d="M30.2145 72.5503C30.2145 71.9287 29.8975 71.9653 29.5927 71.9531V71.7703C35.6039 70.7586 36.1404 77.6449 29.5195 76.5846V76.4017C30.751 76.7064 29.9829 73.05 30.2145 72.5381V72.5503ZM30.8364 75.7923C33.2628 78.5712 35.3844 71.4046 30.8974 72.0384L30.8364 75.7923Z" fill="white"/>
<path d="M38.0792 76.1702C39.3473 76.3287 37.9085 72.6479 38.0548 72.1603C37.9695 71.685 37.7134 71.7216 37.3476 71.7703L37.3232 71.5875C37.8354 71.5265 38.5547 71.3925 38.9815 71.3072C40.3715 70.7587 41.6274 72.7941 39.835 73.4157C43.5905 73.7935 40.7373 76.5602 38.1036 76.3408L38.0792 76.158V76.1702ZM38.9571 73.5376C40.6642 73.6838 40.2984 70.8562 38.6401 71.6241L38.9571 73.5376ZM39.262 75.3658C40.5178 77.3403 42.2615 72.916 38.9937 73.757L39.262 75.3658Z" fill="white"/>
<path d="M45.334 74.0741C45.4682 74.5372 45.7242 74.4641 46.0778 74.3666L46.1266 74.5372C45.4804 74.7079 44.9073 74.8785 44.2732 75.0857L44.2245 74.9151C45.2853 74.8663 44.2245 73.1722 44.2123 72.6603C43.7123 72.4287 42.2004 70.7102 41.5664 71.0636L41.5176 70.893C41.92 70.7955 42.7613 70.5395 43.249 70.3811L43.2978 70.5517C42.2248 70.7711 44.4439 71.868 44.6268 72.1727C44.6268 71.7461 45.9803 69.6498 44.7366 70.1251L44.6878 69.9545C45.1267 69.8448 45.5535 69.7107 45.9925 69.5767L46.0412 69.7473C45.4925 69.9179 45.1024 71.9412 44.8463 72.3677L45.3584 74.0741H45.334Z" fill="white"/>
<path d="M53.8449 71.1854C52.772 71.7095 51.7111 72.258 50.6625 72.8065L50.5772 72.648C51.8331 72.4164 49.3457 69.345 49.3335 68.8453C49.114 68.4187 48.8823 68.5284 48.5531 68.6869L48.4678 68.5284C49.0652 68.2359 49.5895 67.9678 50.187 67.6509L50.2724 67.8093C49.0409 68.0409 51.3697 70.8564 51.3941 71.3804C51.6624 72.4042 53.9303 71.1976 53.4548 70.1738L53.6011 70.1251L53.8571 71.1854H53.8449Z" fill="white"/>
<path d="M53.1987 66.7246C52.9426 66.3224 52.711 66.4565 52.4061 66.6393L52.3086 66.493C52.8817 66.1518 53.3816 65.8349 53.9425 65.457L54.04 65.6033C52.8085 65.9446 55.5642 68.7722 55.6251 69.2841C55.8812 69.6863 56.1129 69.5644 56.4177 69.3694L56.5152 69.5157C55.9421 69.8691 55.4422 70.1738 54.8813 70.5517L54.7838 70.4054C56.0153 70.0641 53.2597 67.2365 53.1987 66.7246Z" fill="white"/>
<path d="M58.0028 67.6385C58.2954 68.0163 58.5027 67.8701 58.8075 67.6507L58.9173 67.7969C58.3564 68.2113 57.9052 68.5404 57.3565 68.9914L57.2468 68.8451C58.4295 68.2845 55.6129 66.0297 55.43 65.3959C55.0886 64.9449 54.9789 64.9937 54.5399 65.3106L54.4302 65.1643C55.3203 64.494 56.247 63.8114 57.1127 63.1167L57.7345 63.8602L57.6248 63.9821C57.0761 63.2386 56.1982 64.0917 55.6251 64.5305L56.82 66.0906C57.2224 65.7128 58.1979 65.3593 57.6736 64.7133L57.7955 64.6158C57.9906 64.9205 58.4295 65.5056 58.6978 65.7981L58.588 65.8834C58.1247 65.1643 57.4663 66.0053 56.9785 66.3222L57.9906 67.6507L58.0028 67.6385Z" fill="white"/>
<path d="M60.0387 63.3728C60.4045 63.0681 61.2702 62.2637 60.6971 61.9102L60.7947 61.8127C61.0507 62.1418 61.5385 62.6049 61.8677 62.9218L61.7701 63.0193C61.1483 62.2515 60.7215 63.2265 60.2338 63.58C60.7825 63.9944 61.5628 65.5179 62.2335 64.616C62.7943 64.0797 63.2699 63.6775 62.8431 62.8243L62.9772 62.7268C63.1358 63.0559 63.3065 63.3728 63.5137 63.6897C62.648 64.5185 61.7579 65.3351 60.9166 66.1882L60.7947 66.0542C61.9164 65.3716 58.8438 63.4459 58.5999 62.8365C58.2097 62.4343 58.1122 62.483 57.6976 62.8487L57.5757 62.7146C58.4048 61.9468 59.1974 61.1667 60.0143 60.3623L60.7337 61.1058L60.6605 61.2277C59.9168 60.5451 59.2461 61.4349 58.6974 61.9468L60.0631 63.3606L60.0387 63.3728Z" fill="white"/>
<path d="M77.6582 69.3939C75.817 72.1606 74.7928 75.1954 75.7317 78.4862L75.4756 78.6081C73.6954 75.4026 75.2927 71.8559 77.4387 69.2842L77.6582 69.3939Z" fill="white"/>
<path d="M77.5239 76.3535C79.0358 76.9142 79.0602 70.8567 79.4748 70.1741C79.5601 69.5769 78.9383 69.7232 78.5969 69.6988L78.6456 69.4307C79.5723 69.4672 80.438 69.4429 81.3647 69.4307L81.3159 69.6988C79.8649 68.9797 79.7552 75.0981 79.3894 75.6222C79.2187 76.3169 79.5967 76.3535 80.2185 76.3413L80.1698 76.6095C79.2675 76.5973 78.3652 76.5729 77.4629 76.6095L77.5117 76.3413L77.5239 76.3535Z" fill="white"/>
<path d="M81.5478 73.2212C83.4743 70.9542 84.2181 71.8927 83.0354 74.3181H83.0598C83.5597 73.6112 85.0716 71.9049 86.0837 71.9171C87.6078 71.9658 83.6572 77.8405 86.4861 75.1347L86.6568 75.2688C86.2788 76.1341 83.9499 77.5723 84.6083 75.6344C84.6083 75.1713 86.0105 72.9165 85.3033 72.7337C83.7304 73.1968 82.8037 75.0372 82.3038 76.4876C82.1941 76.646 81.7307 76.6339 81.5966 76.4632C81.6941 75.8416 83.8645 71.0517 81.6942 73.3918L81.5356 73.209L81.5478 73.2212Z" fill="white"/>
<path d="M87.486 75.3294C87.6079 76.1948 89.4125 76.5238 89.7051 75.695C89.1077 74.3787 86.2423 73.6718 88.937 72.1483C89.632 71.4658 91.3878 72.3799 90.2538 73.0015C90.0343 72.7821 89.7783 72.453 89.2662 72.4774C86.9739 73.0868 90.3026 74.074 90.3148 75.2075C90.327 76.9992 86.2667 77.5111 87.3518 75.3416H87.486V75.3294Z" fill="white"/>
<path d="M93.0339 70.7715H93.863L93.4363 72.0634H94.5337L94.4117 72.49H93.3143C93.229 73.4529 90.9489 77.9259 93.8386 75.1104L93.985 75.2811C90.3026 79.1203 91.778 74.5863 92.5218 72.4778H91.5098L91.6317 72.0512H92.6315L93.0217 70.7593L93.0339 70.7715Z" fill="white"/>
<path d="M94.9115 73.2575C95.1798 72.8188 96.4723 71.3074 96.8624 72.1728C96.9112 72.8188 94.6311 77.5234 96.6917 75.2808L96.8502 75.4148C96.521 76.1705 94.3872 77.7428 94.9359 75.8536C95.0213 75.3539 96.8624 71.2221 95.0578 73.3916L94.9115 73.2453V73.2575ZM97.2404 70.0033C97.2404 70.6005 96.3015 70.6005 96.2894 70.0033C96.2894 69.3817 97.2404 69.3817 97.2404 70.0033Z" fill="white"/>
<path d="M99.3376 70.7715H100.167L99.74 72.0634H100.837L100.715 72.49H99.6181C99.5327 73.4529 97.2526 77.9259 100.142 75.1104L100.289 75.2811C96.6064 79.1203 98.0817 74.5863 98.8255 72.4778H97.8135L97.9354 72.0512H98.9352L99.3254 70.7593L99.3376 70.7715Z" fill="white"/>
<path d="M106.056 75.366C103.459 78.1449 103.764 75.817 104.727 73.684H104.703C102.593 76.6457 99.7402 78.6202 102.081 73.1234C102.289 72.258 101.325 73.1234 101.13 73.4159L100.972 73.2453C101.447 72.7943 102.715 71.2464 103.118 72.258C103.227 72.7334 101.691 75.5366 102.215 75.8048C102.91 75.8048 104.861 73.1599 105.215 72.2458C105.337 71.7583 105.812 71.9411 106.032 72.2215C106.056 72.7334 103.63 77.572 105.934 75.2319L106.081 75.3782L106.056 75.366Z" fill="white"/>
<path d="M108.495 70.7715H109.324L108.897 72.0634H109.995L109.873 72.49H108.775C108.69 73.4529 106.41 77.9259 109.3 75.1104L109.446 75.2811C105.764 79.1203 107.239 74.5863 107.983 72.4778H106.971L107.093 72.0512H108.092L108.483 70.7593L108.495 70.7715Z" fill="white"/>
<path d="M110.372 73.2575C110.641 72.8188 111.933 71.3074 112.323 72.1728C112.372 72.8188 110.092 77.5234 112.153 75.2808L112.311 75.4148C111.982 76.1705 109.848 77.7428 110.397 75.8536C110.482 75.3539 112.323 71.2221 110.519 73.3916L110.372 73.2453V73.2575ZM112.701 70.0033C112.701 70.6005 111.762 70.6005 111.75 70.0033C111.75 69.3817 112.701 69.3817 112.701 70.0033Z" fill="white"/>
<path d="M115.981 71.9167C119.2 72.0508 118.042 76.9504 115.25 76.7798C111.933 76.7188 113.153 71.7217 115.981 71.9167ZM115.25 76.5116C117.042 76.5116 118.152 72.392 115.981 72.1848C114.128 72.1239 113.031 76.341 115.25 76.5116Z" fill="white"/>
<path d="M118.773 73.2212C120.7 70.9542 121.444 71.8927 120.261 74.3181H120.285C120.785 73.6112 122.297 71.9049 123.309 71.9171C124.833 71.9658 120.883 77.8405 123.712 75.1347L123.882 75.2688C123.504 76.1341 121.175 77.5723 121.834 75.6344C121.834 75.1713 123.236 72.9165 122.529 72.7337C120.956 73.1968 120.029 75.0372 119.529 76.4876C119.42 76.646 118.956 76.6339 118.822 76.4632C118.92 75.8416 121.09 71.0517 118.92 73.3918L118.761 73.209L118.773 73.2212Z" fill="white"/>
<path d="M130.308 71.9167C133.527 72.0508 132.369 76.9504 129.576 76.7798C126.26 76.7188 127.479 71.7217 130.308 71.9167ZM129.564 76.5116C131.357 76.5116 132.466 72.392 130.296 72.1848C128.442 72.1239 127.345 76.341 129.564 76.5116Z" fill="white"/>
<path d="M136.405 72.075L136.283 72.5016H135.161L133.442 78.7907L132.808 78.9735L132.771 78.9125L134.356 72.5016H133.429L133.539 72.075H134.441C134.819 70.6977 135.478 69.0158 137.087 68.7598C137.599 68.6745 137.624 69.4667 137.221 69.5764C135.685 68.6745 135.575 71.0634 135.258 72.0628H136.392L136.405 72.075Z" fill="white"/>
<path d="M139.331 76.353C140.88 76.8528 140.843 71.0634 141.27 70.3687C141.428 69.9177 141.026 69.6496 140.416 69.7105L140.465 69.4424C142.135 69.4911 143.794 69.4911 145.464 69.4424L145.354 70.8684H145.147C145.513 69.4424 143.355 69.8202 142.306 69.7715L141.77 72.6966C142.648 72.6479 144.245 73.0501 144.245 71.7459H144.416L143.989 74.0861H143.818C144.269 72.7941 142.489 73.1841 141.696 73.1354C141.806 73.8057 140.514 76.3287 141.831 76.3165C143.208 76.2921 144.854 76.6699 145.245 74.9148H145.476L145.013 76.6456C143.855 76.6456 140.855 76.609 139.282 76.6456L139.331 76.3774V76.353Z" fill="white"/>
<path d="M154.146 75.3661C151.171 78.4375 152.122 75.3051 152.951 73.4038C153.426 71.734 151.305 73.6963 151.024 74.1716C150.232 74.6592 150.11 77.1943 149.061 76.4996C151.354 71.2952 149.232 71.9047 147.183 75.9267C147.11 76.3777 146.757 76.914 146.269 76.4874C146.33 75.9633 148.598 70.9784 146.367 73.416L146.208 73.2332C148.135 70.954 148.878 71.9046 147.696 74.3301H147.72C148.988 72.4165 152.353 70.0886 150.512 74.3545H150.537C151.049 73.7572 153.414 70.8809 154.024 72.3434C154.097 73.1113 151.744 77.3771 154.024 75.2198L154.17 75.3783L154.146 75.3661Z" fill="white"/>
<path d="M155.048 73.2575C155.316 72.8188 156.609 71.3074 156.999 72.1728C157.048 72.8188 154.768 77.5234 156.828 75.2808L156.987 75.4148C156.658 76.1705 154.524 77.7428 155.073 75.8536C155.158 75.3539 156.999 71.2221 155.195 73.3916L155.048 73.2453V73.2575ZM157.377 70.0033C157.377 70.6005 156.438 70.6005 156.426 70.0033C156.426 69.3817 157.377 69.3817 157.377 70.0033Z" fill="white"/>
<path d="M157.718 73.2212C159.645 70.9542 160.389 71.8927 159.206 74.3181H159.23C159.73 73.6112 161.242 71.9049 162.254 71.9171C163.778 71.9658 159.828 77.8405 162.656 75.1347L162.827 75.2688C162.449 76.1341 160.12 77.5723 160.779 75.6344C160.779 75.1713 162.181 72.9165 161.474 72.7337C159.901 73.1968 158.974 75.0372 158.474 76.4876C158.364 76.646 157.901 76.6339 157.767 76.4632C157.865 75.8416 160.035 71.0517 157.865 73.3918L157.706 73.209L157.718 73.2212Z" fill="white"/>
<path d="M167.107 75.4394C162.779 79.8758 162.364 72.1486 166.473 71.917C169.204 72.4655 165.851 74.9153 164.412 74.6349C163.815 76.6094 165.912 76.5485 166.961 75.2687L167.107 75.4394ZM166.656 72.6848C166.144 71.2345 164.534 73.6599 164.461 74.3668C165.412 74.3059 166.656 73.8062 166.656 72.6848Z" fill="white"/>
<path d="M168.021 73.2212C169.948 70.9542 170.692 71.8927 169.509 74.3181H169.533C170.033 73.6112 171.545 71.9049 172.557 71.9171C174.081 71.9658 170.131 77.8405 172.96 75.1347L173.13 75.2688C172.752 76.1341 170.424 77.5723 171.082 75.6344C171.082 75.1713 172.484 72.9165 171.777 72.7337C170.204 73.1968 169.277 75.0372 168.777 76.4876C168.668 76.646 168.204 76.6339 168.07 76.4632C168.168 75.8416 170.338 71.0517 168.168 73.3918L168.009 73.209L168.021 73.2212Z" fill="white"/>
<path d="M177.727 75.3051C173.265 79.9487 172.594 72.2458 177.362 71.9168C178.02 71.868 177.983 72.8674 177.386 72.8674C177.02 72.8674 176.862 72.5384 176.545 72.5384C173.691 73.3915 174.63 78.4496 177.569 75.1222L177.715 75.3051H177.727Z" fill="white"/>
<path d="M181.983 75.4394C177.654 79.8758 177.239 72.1486 181.349 71.917C184.08 72.4655 180.727 74.9153 179.288 74.6349C178.69 76.6094 180.788 76.5485 181.836 75.2687L181.983 75.4394ZM181.531 72.6848C181.019 71.2345 179.41 73.6599 179.337 74.3668C180.288 74.3059 181.531 73.8062 181.531 72.6848Z" fill="white"/>
<path d="M187.579 70.9539C187.799 70.1129 187.762 69.6498 186.762 69.7107L186.811 69.4426C196.968 68.2969 194.59 78.3765 185.689 76.6214L185.738 76.3533C187.287 76.8652 187.14 71.6365 187.567 70.9539H187.579ZM187.628 75.6585C191.749 79.0468 195.237 68.9673 188.713 69.8082L187.628 75.6585Z" fill="white"/>
<path d="M198.017 75.4394C193.688 79.8758 193.274 72.1486 197.383 71.917C200.114 72.4655 196.761 74.9153 195.322 74.6349C194.725 76.6094 196.822 76.5485 197.87 75.2687L198.017 75.4394ZM197.566 72.6848C197.054 71.2345 195.444 73.6599 195.371 74.3668C196.322 74.3059 197.566 73.8062 197.566 72.6848Z" fill="white"/>
<path d="M202.589 75.4394C198.26 79.8758 197.846 72.1486 201.955 71.917C204.686 72.4655 201.333 74.9153 199.894 74.6349C199.297 76.6094 201.394 76.5485 202.443 75.2687L202.589 75.4394ZM202.138 72.6848C201.626 71.2345 200.016 73.6599 199.943 74.3668C200.894 74.3059 202.138 73.8062 202.138 72.6848Z" fill="white"/>
<path d="M211.368 75.3661C210.978 76.0852 208.82 77.5477 209.344 75.7927C209.332 75.3539 210.759 72.9041 210.052 72.7334C208.722 73.1722 207.698 74.7689 207.186 76.0486C207.125 76.4996 206.662 76.8774 206.284 76.4996C208.576 71.2952 206.455 71.9047 204.406 75.9267C204.333 76.3777 203.979 76.914 203.492 76.4874C203.553 75.9633 205.821 70.9784 203.589 73.416L203.431 73.2332C205.357 70.954 206.101 71.9046 204.918 74.3301H204.943C206.211 72.4165 209.576 70.0886 207.735 74.3545H207.759C208.271 73.7572 210.637 70.8809 211.246 72.3434C211.32 73.1113 208.966 77.3771 211.246 75.2198L211.393 75.3783L211.368 75.3661Z" fill="white"/>
<path d="M215.745 75.4394C211.417 79.8758 211.002 72.1486 215.111 71.917C217.843 72.4655 214.489 74.9153 213.051 74.6349C212.453 76.6094 214.55 76.5485 215.599 75.2687L215.745 75.4394ZM215.294 72.6848C214.782 71.2345 213.173 73.6599 213.099 74.3668C214.05 74.3059 215.294 73.8062 215.294 72.6848Z" fill="white"/>
<path d="M221.708 75.3779C221.025 76.6089 218.965 77.7058 219.928 75.3292H219.904C215.099 80.4482 216.429 70.5392 220.623 72.1481L221.123 69.552L220.501 69.2229L220.55 69.0767C221.013 69.0401 221.623 68.906 222.05 68.7598L222.147 68.7963C222.379 69.0523 219.001 78.5468 221.537 75.2317L221.684 75.3779H221.708ZM218.282 76.2189C219.513 76.1823 221.428 72.6722 219.623 72.3431C218.27 72.3309 216.49 75.8167 218.282 76.2189Z" fill="white"/>
<path d="M227 70.7715H227.829L227.402 72.0634H228.499L228.378 72.49H227.28C227.195 73.4529 224.915 77.9259 227.804 75.1104L227.951 75.2811C224.268 79.1203 225.744 74.5863 226.488 72.4778H225.476L225.598 72.0512H226.597L226.988 70.7593L227 70.7715Z" fill="white"/>
<path d="M231.633 71.9167C234.852 72.0508 233.694 76.9504 230.902 76.7798C227.585 76.7188 228.804 71.7217 231.633 71.9167ZM230.889 76.5116C232.682 76.5116 233.791 72.392 231.621 72.1848C229.768 72.1239 228.67 76.341 230.889 76.5116Z" fill="white"/>
<path d="M238.729 73.3795L238.754 73.4039C239.485 72.2095 242.217 70.9053 242.241 73.2333C242.643 75.6587 236.949 78.8642 237.632 74.9152L238.986 69.5037L238.498 69.2112L238.534 69.0284C238.937 68.9796 239.546 68.8577 239.985 68.7358L240.071 68.7968L238.729 73.3917V73.3795ZM240.802 72.3435C239.425 72.2826 237.132 75.8293 238.9 76.5119C240.168 76.6094 242.583 72.9164 240.802 72.3435Z" fill="white"/>
<path d="M246.667 75.4394C242.339 79.8758 241.924 72.1486 246.033 71.917C248.764 72.4655 245.411 74.9153 243.972 74.6349C243.375 76.6094 245.472 76.5485 246.521 75.2687L246.667 75.4394ZM246.216 72.6848C245.704 71.2345 244.094 73.6599 244.021 74.3668C244.972 74.3059 246.216 73.8062 246.216 72.6848Z" fill="white"/>
<path d="M252.203 70.8928C252.435 70.0762 252.154 69.5643 251.313 69.7105L251.362 69.4424C252.362 69.4789 253.349 69.4546 254.349 69.4424L254.3 69.6983C252.703 69.2596 252.947 73.5254 252.569 74.4273C252.459 77.7425 256.897 76.3652 256.458 73.562C256.361 72.66 257.995 69.3936 255.959 69.7105L256.007 69.4424C256.788 69.4789 257.605 69.4546 258.397 69.4424L258.348 69.7105C256.861 69.7837 257.3 73.0379 256.861 74.0373C257.068 77.1209 251.971 77.9497 251.593 74.8905C251.593 73.9886 252.093 71.8069 252.215 70.8928H252.203Z" fill="white"/>
<path d="M258.458 73.2212C260.385 70.9542 261.128 71.8927 259.946 74.3181H259.97C260.47 73.6112 261.982 71.9049 262.994 71.9171C264.518 71.9658 260.567 77.8405 263.396 75.1347L263.567 75.2688C263.189 76.1341 260.86 77.5723 261.518 75.6344C261.518 75.1713 262.921 72.9165 262.213 72.7337C260.641 73.1968 259.714 75.0372 259.214 76.4876C259.104 76.646 258.641 76.6339 258.507 76.4632C258.604 75.8416 260.775 71.0517 258.604 73.3918L258.446 73.209L258.458 73.2212Z" fill="white"/>
<path d="M264.384 73.2575C264.652 72.8188 265.944 71.3074 266.335 72.1728C266.383 72.8188 264.103 77.5234 266.164 75.2808L266.322 75.4148C265.993 76.1705 263.859 77.7428 264.408 75.8536C264.493 75.3539 266.335 71.2221 264.53 73.3916L264.384 73.2453V73.2575ZM266.713 70.0033C266.713 70.6005 265.774 70.6005 265.762 70.0033C265.762 69.3817 266.713 69.3817 266.713 70.0033Z" fill="white"/>
<path d="M267.066 73.0867C267.554 72.392 269.627 71.0269 269.017 72.8917C269.066 73.5011 267.493 76.0606 268.652 76.1703C269.859 75.9997 270.944 74.2446 270.968 73.0867C270.651 72.3676 271.59 71.2829 271.797 72.4408C272.078 74.208 267.322 79.1686 267.493 75.4147C267.688 74.7443 269.017 71.4413 267.237 73.2696L267.079 73.0989L267.066 73.0867Z" fill="white"/>
<path d="M275.809 75.4394C271.48 79.8758 271.066 72.1486 275.175 71.917C277.906 72.4655 274.553 74.9153 273.114 74.6349C272.517 76.6094 274.614 76.5485 275.662 75.2687L275.809 75.4394ZM275.358 72.6848C274.846 71.2345 273.236 73.6599 273.163 74.3668C274.114 74.3059 275.358 73.8062 275.358 72.6848Z" fill="white"/>
<path d="M276.699 73.2938C278.37 70.9781 279.162 71.8191 278.187 74.2445H278.211C278.467 73.7692 279.93 70.9415 280.43 72.2578C280.455 72.7454 280.138 73.1719 279.613 72.9769C278.906 72.9769 278.175 74.9758 277.833 76.024L277.65 76.6821C277.602 76.8284 276.809 76.7918 276.967 76.4871C277.089 75.7924 278.943 71.1365 276.846 73.4645L276.711 73.2938H276.699Z" fill="white"/>
<path d="M280.82 75.3294C280.942 76.1948 282.747 76.5238 283.04 75.695C282.442 74.3787 279.577 73.6718 282.271 72.1483C282.966 71.4658 284.722 72.3799 283.588 73.0015C283.369 72.7821 283.113 72.453 282.601 72.4774C280.308 73.0868 283.637 74.074 283.649 75.2075C283.661 76.9992 279.601 77.5111 280.686 75.3416H280.82V75.3294Z" fill="white"/>
<path d="M284.808 73.2575C285.076 72.8188 286.368 71.3074 286.758 72.1728C286.807 72.8188 284.527 77.5234 286.588 75.2808L286.746 75.4148C286.417 76.1705 284.283 77.7428 284.832 75.8536C284.917 75.3539 286.758 71.2221 284.954 73.3916L284.808 73.2453V73.2575ZM287.136 70.0033C287.136 70.6005 286.198 70.6005 286.185 70.0033C286.185 69.3817 287.136 69.3817 287.136 70.0033Z" fill="white"/>
<path d="M289.234 70.7715H290.063L289.636 72.0634H290.733L290.611 72.49H289.514C289.429 73.4529 287.149 77.9259 290.038 75.1104L290.185 75.2811C286.502 79.1203 287.978 74.5863 288.721 72.4778H287.709L287.831 72.0512H288.831L289.221 70.7593L289.234 70.7715Z" fill="white"/>
<path d="M291.136 73.6111L290.892 73.4649C290.892 72.7823 291.172 71.917 292.002 71.917C293.453 71.917 293.428 75.1225 293.635 76.1097C294.27 75.0737 295.05 73.7086 294.635 72.5264C294.574 71.8073 295.574 71.6732 295.525 72.4533C295.525 73.5868 293.867 76.4144 293.136 77.3407C292.709 77.9014 291.989 78.9617 291.172 78.9617C290.673 78.9861 290.587 78.1329 291.124 78.1329C291.831 78.4742 292.526 77.6576 292.989 77.0604C292.916 75.8538 292.636 72.8311 291.66 72.6727C291.185 72.6727 291.075 73.1724 291.233 73.538L291.136 73.6111Z" fill="white"/>
<path d="M295.44 78.4984C297.281 75.7317 298.305 72.6969 297.366 69.4061L297.623 69.2842C299.403 72.4897 297.805 76.0364 295.659 78.6081L295.44 78.4984Z" fill="white"/>
<path d="M77.4629 54.1954C76.9873 55.0973 77.1702 55.8286 78.292 55.6701V56.0602C77.3044 55.9992 76.3045 55.987 75.3047 56.0602V55.6701C77.158 55.6823 78.3896 48.601 79.0846 47.236C79.5845 47.2116 80.4624 46.1878 80.5843 47.0166C81.4622 48.3451 82.6328 55.5239 84.4008 55.6823V56.0724C83.1571 55.9992 81.9012 56.0114 80.6453 56.0724V55.6823C82.4864 55.9383 80.9501 53.72 80.8282 52.8547H77.8652L77.4507 54.2076L77.4629 54.1954ZM79.365 48.4304H79.3406L78.1335 52.1112H80.5721L79.3772 48.4304H79.365Z" fill="white"/>
<path d="M92.5822 49.6614C91.6433 45.5662 85.8028 47.4553 86.4002 51.319C85.8028 55.0363 91.3872 57.803 92.6309 53.525L92.9967 53.5738C92.826 54.2807 92.7407 54.9632 92.6675 55.6823C81.9498 59.7897 82.1448 43.1286 92.8626 47.431C92.8504 48.1622 92.8748 48.8813 92.9723 49.6126L92.5822 49.6614Z" fill="white"/>
<path d="M95.2407 54.1954C94.7652 55.0973 94.9481 55.8286 96.0698 55.6701V56.0602C95.0822 55.9992 94.0824 55.987 93.0825 56.0602V55.6701C94.9359 55.6823 96.1674 48.601 96.8624 47.236C97.3623 47.2116 98.2402 46.1878 98.3622 47.0166C99.2401 48.3451 100.411 55.5239 102.179 55.6823V56.0724C100.935 55.9992 99.679 56.0114 98.4231 56.0724V55.6823C100.264 55.9383 98.728 53.72 98.606 52.8547H95.6431L95.2285 54.2076L95.2407 54.1954ZM97.1428 48.4304H97.1185L95.9113 52.1112H98.35L97.155 48.4304H97.1428Z" fill="white"/>
<path d="M102.849 55.6697C103.361 55.7063 104.044 55.6088 103.995 54.9262C103.617 54.1218 105.032 46.5774 102.849 47.3574V46.9674C115.542 45.127 115.445 57.9123 102.849 56.0597V55.6697ZM105.666 54.5606C109.446 59.6065 114.042 46.2483 105.666 47.5037V54.5606Z" fill="white"/>
<path d="M112.981 55.6701C113.494 55.7067 114.176 55.6091 114.128 54.9266C113.75 54.1222 115.164 46.5778 112.981 47.3578V46.9678C115.14 47.0287 117.408 47.0165 119.566 46.9678C119.541 47.6016 119.554 48.3328 119.59 48.9544L119.2 49.0641C119.358 47.1506 117.042 47.565 115.798 47.5406V50.9533C116.737 50.9289 118.481 51.2824 118.383 49.8076H118.773C118.724 50.8192 118.724 51.8065 118.773 52.8181L118.383 52.8912C118.578 51.2945 116.834 51.6114 115.798 51.5993C115.859 51.9649 115.664 54.8779 115.932 55.1216C117.188 55.8773 119.797 55.731 120.041 53.8906L120.407 53.9759C120.236 54.6707 120.09 55.3532 119.968 56.0479C117.7 55.9992 115.262 55.987 112.994 56.0479V55.6579L112.981 55.6701Z" fill="white"/>
<path d="M127.333 53.7809L130.418 46.9678C131.296 47.0287 132.235 47.0165 133.125 46.9678V47.3578C132.003 47.175 131.564 47.9672 131.857 48.9788C132.271 49.8198 131.491 56.3404 133.515 55.6701V56.0601C132.174 55.987 130.832 55.9992 129.491 56.0601V55.6701C131.747 56.2551 129.942 49.9539 130.235 48.9179H130.211L126.894 56.2551H126.577L123.419 49.0641H123.395C123.699 50.0514 121.736 56.377 124.212 55.6701V56.0601C123.114 55.9992 122.005 55.987 120.907 56.0601V55.6701C123.029 56.0114 122.224 51.7821 122.663 50.6242C122.712 49.381 123.419 47.1872 121.517 47.3578V46.9678C122.444 47.0043 123.346 47.0409 124.285 46.9678L127.333 53.7809Z" fill="white"/>
<path d="M137.868 51.8182C137.002 51.0259 135.258 47.2233 133.88 47.3695V46.9795C135.209 47.0282 136.526 47.0404 137.855 46.9795V47.3695C135.563 47.0526 139.123 50.2825 139.209 50.8553C139.465 50.0875 142.696 47.1136 140.245 47.3695V46.9795C141.16 47.0161 142.062 47.0404 142.964 46.9795V47.3695C141.903 47.2598 140.148 50.8066 139.526 51.3916C139.77 52.4763 138.684 56.1937 140.855 55.6818V56.0718C139.367 56.0231 138.002 56.0231 136.526 56.0718V55.6818C138.611 56.1571 137.648 52.8907 137.855 51.8304L137.868 51.8182Z" fill="white"/>
<path d="M150.878 50.1123C154.938 50.283 153.487 56.4745 149.951 56.2552C145.769 56.182 147.293 49.8686 150.878 50.1123ZM149.939 55.9139C152.219 55.9139 153.609 50.6974 150.866 50.4536C148.525 50.3805 147.135 55.7189 149.939 55.9139Z" fill="white"/>
<path d="M158.584 50.3074L158.425 50.8437H157.011L154.84 58.8025L154.048 59.0341L154.011 58.961L156.011 50.8559H154.84L154.987 50.3196H156.133C156.608 48.5767 157.437 46.4438 159.474 46.1269C160.132 46.0294 160.157 47.0166 159.644 47.1629C157.681 46.0172 157.572 49.0642 157.157 50.3074H158.584Z" fill="white"/>
<path d="M170.021 51.0874C169.826 50.1367 170.728 46.8703 168.838 47.309V46.9678C170.131 47.0043 171.216 46.9921 172.484 46.9678V47.309C170.253 46.6021 171.679 53.8906 171.301 54.7804C171.301 55.6945 171.801 55.7066 172.484 55.7188V56.0601C171.24 56.0235 170.119 56.0357 168.838 56.0601V55.7188C170.789 56.1942 169.789 52.5499 170.021 51.6236H164.766C164.997 52.5743 163.998 56.1942 165.948 55.7188V56.0601C164.668 56.0357 163.571 56.0235 162.303 56.0601V55.7188C164.534 56.4257 163.107 49.1373 163.485 48.2475C163.485 47.3334 162.986 47.3212 162.303 47.309V46.9678C163.559 47.0043 164.68 47.0043 165.948 46.9678V47.309C164.059 46.8581 164.961 50.1489 164.766 51.0874H170.021Z" fill="white"/>
<path d="M174.618 48.2592C174.618 47.3451 174.118 47.3329 173.435 47.3208V46.9795C174.691 47.0161 175.813 47.0161 177.081 46.9795V47.3208C174.849 46.6138 176.276 53.9023 175.898 54.7921C175.898 55.7062 176.398 55.7184 177.081 55.7306V56.0718C175.801 56.0474 174.703 56.0353 173.435 56.0718V55.7306C175.666 56.4253 174.24 49.149 174.618 48.2592Z" fill="white"/>
<path d="M186.579 49.3077H186.299C185.067 45.2856 179.117 47.5526 179.605 51.3431C179.324 54.3048 182.653 57.0593 185.092 55.3408C185.006 54.3901 185.567 52.0622 183.909 52.4522V52.1109C184.97 52.1353 186.335 52.1475 187.299 52.1109V52.4522C186.067 52.0988 186.408 54.3657 186.372 55.1092L186.567 55.3042V55.5236C175.41 60.021 175.886 42.9699 186.372 47.4917L186.591 49.3077H186.579Z" fill="white"/>
<path d="M195.614 51.0874C195.419 50.1367 196.321 46.8703 194.432 47.309V46.9678C195.724 47.0043 196.809 46.9921 198.077 46.9678V47.309C195.846 46.6021 197.273 53.8906 196.895 54.7804C196.895 55.6945 197.394 55.7066 198.077 55.7188V56.0601C196.834 56.0235 195.712 56.0357 194.432 56.0601V55.7188C196.382 56.1942 195.383 52.5499 195.614 51.6236H190.359C190.591 52.5743 189.591 56.1942 191.542 55.7188V56.0601C190.261 56.0357 189.164 56.0235 187.896 56.0601V55.7188C190.127 56.4257 188.701 49.1373 189.079 48.2475C189.079 47.3334 188.579 47.3212 187.896 47.309V46.9678C189.152 47.0043 190.274 47.0043 191.542 46.9678V47.309C189.652 46.8581 190.554 50.1489 190.359 51.0874H195.614Z" fill="white"/>
<path d="M201.358 51.0873C202.309 51.1239 204.406 51.2702 204.174 49.966H204.43C204.345 50.7339 204.406 52.0136 204.43 52.8668H204.174C204.345 51.0142 202.479 51.7699 201.358 51.6114C201.565 52.8912 200.614 55.9748 202.699 55.6335C204.15 55.6335 205.332 55.7188 205.869 54.0125L206.186 54.0612C205.979 54.7072 205.784 55.3776 205.649 56.0479C203.382 56.0479 201.114 55.987 198.858 56.0479V55.7066C201.15 56.3404 199.724 49.5638 200.102 48.4547C200.102 47.3821 199.894 47.3334 198.858 47.2968V46.9556C200.992 47.0043 203.101 46.9921 205.235 46.9556V48.8935L204.979 48.9544C204.881 47.0531 202.796 47.3822 201.37 47.37V51.063L201.358 51.0873Z" fill="white"/>
<path d="M209.307 51.7694C209.527 52.7201 208.563 56.1815 210.49 55.7306V56.0718C209.21 56.0474 208.112 56.0353 206.844 56.0718V55.7306C209.076 56.4253 207.649 49.1246 208.027 48.2592C208.027 47.3451 207.527 47.3329 206.844 47.3208V46.9795C208.32 47.0161 208.954 47.0039 210.563 46.9795C214.489 46.9795 214.306 50.7091 211.721 51.5135C213.563 53.8292 213.429 55.1943 215.562 55.7306V56.0718C214.867 56.0474 214.172 56.0353 213.477 56.0718C212.295 54.7677 211.417 53.2442 210.478 51.7816H209.295L209.307 51.7694ZM210.1 47.3939C209.771 47.3939 209.551 47.4305 209.319 47.467V51.2819C212.538 52.1229 213.538 47.3695 210.1 47.3939Z" fill="white"/>
<path d="M222.598 51.0873C223.549 51.1239 225.646 51.2702 225.414 49.966H225.67C225.585 50.7339 225.646 52.0136 225.67 52.8668H225.414C225.585 51.0142 223.72 51.7699 222.598 51.6114C222.805 52.8912 221.854 55.9748 223.939 55.6335C225.39 55.6335 226.573 55.7188 227.109 54.0125L227.426 54.0612C227.219 54.7072 227.024 55.3776 226.89 56.0479C224.622 56.0479 222.354 55.987 220.098 56.0479V55.7066C222.39 56.3404 220.964 49.5638 221.342 48.4547C221.342 47.3821 221.135 47.3334 220.098 47.2968V46.9556C222.232 47.0043 224.341 46.9921 226.475 46.9556V48.8935L226.219 48.9544C226.122 47.0531 224.037 47.3822 222.61 47.37V51.063L222.598 51.0873Z" fill="white"/>
<path d="M229.207 48.4181C229.207 47.248 228.597 47.3212 228.012 47.309V46.9677C239.437 45.0176 240.619 57.7298 228.012 56.0479V55.7066C230.255 56.2307 228.841 49.3688 229.207 48.4059V48.4181ZM230.487 54.5243C230.487 55.5238 231.206 55.6457 231.84 55.6457C237.998 55.3531 235.913 46.0414 230.487 47.4431V54.5243Z" fill="white"/>
<path d="M246.789 47.3208C243.728 48.0399 248.581 56.4375 242.363 56.2668C235.925 56.535 241.107 47.5158 237.705 47.3208V46.9795C238.961 47.0161 240.083 47.0161 241.351 46.9795V47.3208C239.217 46.7479 240.497 51.7572 240.168 52.6835C240.168 54.2314 240.68 55.7306 242.704 55.7306C246.411 55.4868 244.692 51.5622 245.07 49.4537C245.07 47.3208 244.997 47.3573 243.826 47.3208V46.9795C244.814 47.0161 245.801 47.0039 246.777 46.9795V47.3208H246.789Z" fill="white"/>
<path d="M255.836 49.3323H255.507C254.617 45.6881 248.947 46.7241 249.045 51.319C248.789 55.4264 254.41 57.8518 255.544 53.586L255.849 53.6591L255.544 55.5605C245.192 59.936 245.423 43.0676 255.702 47.4675L255.836 49.3323Z" fill="white"/>
<path d="M263.372 53.4762C263.798 54.4634 263.823 55.8407 265.115 55.731V56.0723C263.981 56.0479 262.847 56.0357 261.713 56.0723V55.731C263.652 56.0235 261.921 53.5006 261.823 52.6596H258.763C258.47 53.7687 257.263 56.0601 259.311 55.731V56.0723C258.275 56.0479 257.239 56.0357 256.202 56.0723V55.731C257.519 55.7432 257.592 54.305 257.995 53.3543C258.275 52.233 260.092 48.3206 259.909 47.1993C260.177 47.0652 260.482 46.9312 260.665 46.6265H260.884L263.372 53.4884V53.4762ZM258.946 52.1233H261.628L260.238 48.2962H260.214L258.946 52.1233Z" fill="white"/>
<path d="M272.736 48.6862H272.382C272.748 47.0408 270.322 47.6015 269.358 47.5162C269.749 48.4303 268.285 56.4744 270.541 55.731V56.0722C269.261 56.0479 268.163 56.0357 266.895 56.0722V55.731C269.139 56.4988 267.7 48.3937 268.078 47.5162C266.968 47.5771 264.92 47.114 264.932 48.6862H264.591L264.737 46.6143H264.993C264.92 47.2115 272.638 47.2115 272.577 46.6143H272.846L272.724 48.6862H272.736Z" fill="white"/>
<path d="M274.858 48.2592C274.858 47.3451 274.358 47.3329 273.675 47.3208V46.9795C274.931 47.0161 276.052 47.0161 277.321 46.9795V47.3208C275.089 46.6138 276.516 53.9023 276.138 54.7921C276.138 55.7062 276.638 55.7184 277.321 55.7306V56.0718C276.04 56.0474 274.943 56.0353 273.675 56.0718V55.7306C275.906 56.4253 274.48 49.149 274.858 48.2592Z" fill="white"/>
<path d="M283.1 46.7847C289.099 46.7847 289.257 56.1939 283.063 56.2548C277.077 56.2548 276.906 46.8456 283.1 46.7847ZM283.222 55.8404C287.526 55.9623 287.197 47.3209 282.954 47.1991C278.649 47.0772 278.979 55.7186 283.222 55.8404Z" fill="white"/>
<path d="M297.939 56.1815H297.634L290.818 48.7102C291.233 50.2093 289.611 56.2303 292.367 55.7306V56.0718C291.209 56.0474 290.05 56.0353 288.904 56.0718V55.7306C289.697 55.7306 290.294 55.7306 290.294 54.073C289.88 52.6957 291.513 46.8942 288.697 47.3208V46.9795C289.453 47.0161 290.209 47.0039 290.965 46.9795C292.123 48.5152 295.818 52.2935 297.415 54.073C297.012 52.6592 298.622 46.8698 295.842 47.3208V46.9795C296.952 47.0161 298.061 47.0039 299.158 46.9795V47.3208C296.817 46.6382 298.354 55.1577 297.939 56.1815Z" fill="white"/>
<path d="M101.118 32.3052L112.396 7.44141C115.628 7.6486 119.03 7.62423 122.285 7.44141V8.86742C117.957 8.31895 116.688 10.9028 117.676 14.7665L119.481 36.5466C119.456 39.033 121.688 39.1914 123.712 39.2036V40.6296C118.822 40.3493 113.908 40.3981 109.019 40.6296V39.2036C112.275 39.484 113.713 37.8995 113.067 34.6331L111.738 14.5715H111.64L99.5083 41.3365H98.3621L86.8518 15.0955H86.7543L85.1326 35.9616C84.8278 38.9721 87.3761 39.3133 89.7416 39.1914V40.6174C85.7301 40.3859 81.6697 40.3371 77.6582 40.6174V39.1914C81.2308 39.6302 82.6452 37.2657 82.6574 34.0115L84.084 20.7996C84.2669 16.2656 86.8396 8.25801 79.9017 8.86742V7.44141C83.2914 7.57548 86.5958 7.69736 89.9855 7.44141L101.118 32.3052Z" fill="white"/>
<path d="M132.893 33.8165C131.283 37.4973 131.43 39.5571 135.941 39.1915V40.6175C132.32 40.3859 128.674 40.3494 125.053 40.6175V39.1915C127.089 39.289 128.82 38.1189 129.479 36.0957C130.869 31.6714 138.026 12.5605 138.843 8.37995C140.66 8.30682 143.891 4.54069 144.318 7.57553L153.073 32.4393C154.231 35.0963 154.365 39.5084 158.255 39.1915V40.6175C153.707 40.3494 149.134 40.3859 144.562 40.6175V39.1915C148.573 39.5084 148.415 37.5461 147.086 34.3894L145.232 28.8804H134.441L132.917 33.8287L132.893 33.8165ZM139.843 12.7555H139.745L135.319 26.2112H144.208L139.831 12.7555H139.843Z" fill="white"/>
<path d="M190.347 31.257L190.445 31.1595V13.3282C190.676 10.1471 188.043 8.47738 185.263 8.85521V7.4292C189.445 7.59983 193.591 7.64859 197.773 7.4292V8.85521C194.042 8.29456 192.627 11.305 192.822 14.8883C192.944 18.4716 192.518 38.1676 193.103 41.3243H191.298L166.802 14.0352V33.6215C166.436 37.3023 168.278 39.7399 172.082 39.1792V40.6053C167.875 40.3981 163.681 40.4224 159.474 40.6053V39.1792C163.437 39.5205 164.437 36.8026 164.425 33.1461V13.1332C164.486 10.4762 161.998 8.56269 159.474 8.85521V7.4292C162.73 7.57546 165.924 7.67296 169.18 7.4292L190.347 31.2448V31.257Z" fill="white"/>
<path d="M199.102 39.1914C200.992 39.3255 203.467 38.9721 203.284 36.4857V11.5732C203.455 9.11118 200.992 8.70897 199.102 8.86742V7.44141C203.699 7.66079 208.979 7.62423 213.612 7.44141V8.86742C211.698 8.72116 209.259 9.11118 209.43 11.5732V36.4857C209.259 38.9721 211.71 39.3377 213.612 39.1914V40.6175C208.966 40.4468 203.723 40.3981 199.102 40.6175V39.1914Z" fill="white"/>
<path d="M225.22 35.243C224.878 38.7166 227.707 39.4845 230.499 39.192V40.618C225.427 40.3986 220.452 40.4473 215.38 40.618V39.192C217.953 39.5942 219.367 38.0706 219.135 35.3405V12.6097C219.416 9.96485 217.953 8.49009 215.38 8.85574V7.42973C222.33 8.36821 230.731 5.69901 236.998 9.37982C245.119 16.2052 236.828 28.4177 227.171 26.2604V24.8344C237.157 25.3463 235.584 6.72282 225.22 9.14825V35.2552V35.243Z" fill="white"/>
<path d="M246.521 33.8165C244.911 37.4973 245.058 39.5571 249.569 39.1915V40.6175C245.948 40.3859 242.302 40.3494 238.681 40.6175V39.1915C240.717 39.289 242.448 38.1189 243.107 36.0957C244.497 31.6714 251.654 12.5605 252.471 8.37995C254.288 8.30682 257.519 4.54069 257.946 7.57553L266.7 32.4393C267.859 35.0963 267.993 39.5084 271.883 39.1915V40.6175C267.335 40.3494 262.762 40.3859 258.19 40.6175V39.1915C262.201 39.5084 262.043 37.5461 260.714 34.3894L258.86 28.8804H248.057L246.533 33.8287L246.521 33.8165ZM253.471 12.7555H253.373L248.947 26.2112H257.836L253.459 12.7555H253.471Z" fill="white"/>
<path d="M283.856 35.9616C284.588 41.4828 299.232 38.9233 299.025 32.5367H300.402C299.903 35.2791 299.195 37.8873 298.647 40.6175C290.27 40.4224 281.905 40.4224 273.529 40.6175V39.1914C275.687 39.423 278.004 38.6674 277.76 36.0103V11.5732C277.931 9.09899 275.419 8.72116 273.529 8.86742V7.44141C278.455 7.62423 283.344 7.6486 288.27 7.44141V8.86742C286.307 8.79429 283.588 8.66022 283.844 11.4391V35.9738L283.856 35.9616Z" fill="white"/>
<path d="M298.207 62.3979H75.2925V63.7752H298.207V62.3979Z" fill="white"/>
</svg>
