<svg width="336" height="47" viewBox="0 0 336 47" fill="none" xmlns="http://www.w3.org/2000/svg">
<g clip-path="url(#clip0_1302_761)">
<path d="M0.441406 10.8027H2.27646V19.0703H0.441406V10.8027Z" fill="#1D1E1C"/>
<path d="M3.89844 10.8027H5.71927L9.20445 16.352H9.2329V10.8027H10.9542V19.0703H9.1191L5.64814 13.5351H5.61969V19.0703H3.89844V10.8027Z" fill="#1D1E1C"/>
<path d="M13.8127 16.3375C13.8127 17.436 14.6804 17.8727 15.662 17.8727C16.3021 17.8727 17.2836 17.6896 17.2836 16.8445C17.2836 15.9572 16.0318 15.8022 14.8084 15.4783C13.5708 15.1544 12.319 14.6755 12.319 13.1262C12.319 11.436 13.9407 10.6191 15.4486 10.6191C17.1983 10.6191 18.7915 11.3656 18.7915 13.2811H17.0134C16.9565 12.2811 16.2452 12.0276 15.3632 12.0276C14.78 12.0276 14.0972 12.267 14.0972 12.9713C14.0972 13.6051 14.4955 13.6896 16.5866 14.2248C17.1983 14.3797 19.0618 14.76 19.0618 16.6332C19.0618 18.1544 17.8526 19.2811 15.5908 19.2811C13.7416 19.2811 12.0061 18.3797 12.0345 16.3375H13.8127Z" fill="#1D1E1C"/>
<path d="M22.0066 12.3379H19.5029V10.8027H26.3453V12.3379H23.8416V19.0844H22.0066V12.3379Z" fill="#1D1E1C"/>
<path d="M27.3125 10.8027H29.1476V19.0703H27.3125V10.8027Z" fill="#1D1E1C"/>
<path d="M32.8464 12.3379H30.3428V10.8027H37.1851V12.3379H34.6815V19.0844H32.8464V12.3379Z" fill="#1D1E1C"/>
<path d="M45.2362 15.9573C45.2362 18.1967 43.899 19.2812 41.6657 19.2812C39.4323 19.2812 38.1094 18.2108 38.1094 15.9573V10.8164H39.9444V15.9573C39.9444 16.8587 40.172 17.746 41.6657 17.746C42.9744 17.746 43.4012 17.1826 43.4012 15.9573V10.8164H45.2362V15.9573Z" fill="#1D1E1C"/>
<path d="M48.6648 12.3379H46.1611V10.8027H53.0035V12.3379H50.4998V19.0844H48.6648V12.3379Z" fill="#1D1E1C"/>
<path d="M54.4404 10.8027H56.2755V19.0703H54.4404V10.8027Z" fill="#1D1E1C"/>
<path d="M61.3962 10.6055C63.9852 10.6055 65.5073 12.521 65.5073 14.9717C65.5073 17.4224 63.9852 19.2674 61.3962 19.2674C58.8073 19.2674 57.2852 17.3519 57.2852 14.9717C57.2852 12.5914 58.8073 10.6055 61.3962 10.6055ZM61.3962 17.7463C63.0464 17.7463 63.6723 16.3519 63.6723 14.9717C63.6723 13.521 63.0464 12.1266 61.3962 12.1266C59.7461 12.1266 59.1202 13.521 59.1202 14.9717C59.1202 16.4224 59.7461 17.7463 61.3962 17.7463Z" fill="#1D1E1C"/>
<path d="M66.29 10.8027H68.1109L71.5961 16.352H71.6245V10.8027H73.3458V19.0703H71.5107L68.0397 13.5351H68.0113V19.0703H66.29V10.8027Z" fill="#1D1E1C"/>
<path d="M80.572 10.6055C83.161 10.6055 84.6831 12.521 84.6831 14.9717C84.6831 17.4224 83.161 19.2674 80.572 19.2674C77.983 19.2674 76.4609 17.3519 76.4609 14.9717C76.4609 12.5914 77.983 10.6055 80.572 10.6055ZM80.572 17.7463C82.2222 17.7463 82.8481 16.3519 82.8481 14.9717C82.8481 13.521 82.2222 12.1266 80.572 12.1266C78.9219 12.1266 78.296 13.521 78.296 14.9717C78.296 16.4224 78.9219 17.7463 80.572 17.7463Z" fill="#1D1E1C"/>
<path d="M85.9346 10.8027H91.8096V12.3379H87.7696V14.2534H91.269V15.6619H87.7696V19.0844H85.9346V10.8168V10.8027Z" fill="#1D1E1C"/>
<path d="M0 22.3105V42.3387H91.7101V22.3105H0ZM13.6704 37.2824H5.81812V27.0429H13.5566V28.9303H8.09416V31.1274H13.1014V32.8739H8.09416V35.381H13.6704V37.2683V37.2824ZM26.9284 37.2824H24.7946V30.0289H24.7661L22.234 37.2824H20.4843L17.9522 30.0993H17.9238V37.2824H15.79V27.0429H18.9907L21.409 34.0852H21.4374L23.7277 27.0429H26.9284V37.2824ZM31.7792 37.2824H29.5031V27.0429H31.7792V37.2824ZM43.1025 37.2824H40.8264L36.5162 30.4232H36.4877V37.2824H34.3539V27.0429H36.6157L40.9402 33.9162H40.9687V27.0429H43.1025V37.2824ZM53.5296 37.2824H45.6772V27.0429H53.4157V28.9303H47.9533V31.1274H52.9605V32.8739H47.9533V35.381H53.5296V37.2683V37.2824ZM64.3834 37.2824H62.1074L57.7971 30.4232H57.7687V37.2824H55.6349V27.0429H57.8967L62.2212 33.9162H62.2496V27.0429H64.3834V37.2824ZM71.3111 37.5218C68.1104 37.5218 66.2185 35.1556 66.2185 32.1979C66.2185 29.2401 68.0962 26.7894 71.3111 26.7894C73.5871 26.7894 75.4933 28.1134 75.7778 30.4796H73.5729C73.4306 29.4655 72.4491 28.6908 71.3111 28.6908C69.2627 28.6908 68.4945 30.4091 68.4945 32.212C68.4945 34.0148 69.2627 35.6345 71.3111 35.6345C72.7052 35.6345 73.4875 34.6908 73.6582 33.3387H75.8632C75.6356 35.888 73.8432 37.5218 71.3111 37.5218ZM86.1338 37.2824H78.2815V27.0429H86.02V28.9303H80.5575V31.1274H85.5648V32.8739H80.5575V35.381H86.1338V37.2683V37.2824Z" fill="#1D1E1C"/>
<path d="M101.028 5.98633H100.687V47.0004H101.028V5.98633Z" fill="#1D1E1C"/>
<path d="M168 35.1257C168.455 34.0271 168.839 32.9003 169.081 31.7313C169.963 31.8158 170.845 31.5341 171.556 30.8862C172.253 30.2102 172.765 29.1538 172.78 27.9848C172.054 28.182 171.272 28.7172 170.475 29.4496C169.878 29.9989 169.451 30.7172 169.152 31.3369C169.351 30.2524 169.423 29.1257 169.394 28.013C170.29 27.9144 171.115 27.4637 171.656 26.7172C171.94 26.3228 172.168 25.858 172.296 25.351C172.41 24.844 172.438 24.2806 172.367 23.7172C171.684 24.0271 170.973 24.689 170.347 25.52C169.821 26.182 169.565 26.9989 169.394 27.6749C169.394 27.4073 169.38 27.1397 169.351 26.8862C169.295 26.013 169.166 25.1538 169.01 24.3228C170.802 23.8862 171.926 21.8299 171.314 19.6609C170.703 20.0411 170.077 20.8017 169.565 21.7313C169.181 22.4778 168.982 23.3792 168.953 24.0834C168.825 23.4778 168.697 22.858 168.541 22.2665C168.398 21.7454 168.213 21.2524 168.043 20.7454C169.764 20.0693 170.617 17.8862 169.707 15.8158C169.138 16.2806 168.654 17.0975 168.256 18.0834C167.957 18.9003 167.9 19.858 167.986 20.5764C167.687 19.7313 167.36 18.9144 166.99 18.1538C166.862 17.8721 166.706 17.6186 166.563 17.3369C167.388 16.8721 167.943 16.1116 168.156 15.1679C168.341 14.2524 168.213 13.1538 167.602 12.1961C167.09 12.7454 166.734 13.5904 166.464 14.6327C166.25 15.5623 166.364 16.6045 166.563 17.3228C166.08 16.3792 165.568 15.5059 165.07 14.7031C164.714 14.2102 164.387 13.7172 164.06 13.2806C163.704 12.844 163.377 12.4496 163.064 12.0552C162.395 11.3228 161.798 10.7031 161.271 10.2242C161.03 9.98481 160.802 9.78762 160.589 9.61861C159.963 7.82988 158.085 6.75945 156.193 7.15382C156.534 7.82988 157.189 8.50593 158.071 9.0834C158.853 9.59044 159.849 9.73128 160.574 9.70311C160.774 9.87213 160.973 10.0693 161.2 10.3228C161.712 10.8158 162.267 11.4637 162.893 12.2242C163.178 12.6186 163.491 13.0411 163.818 13.4778C164.117 13.9285 164.444 14.4214 164.771 14.9144C165.226 15.6749 165.681 16.52 166.108 17.4214C165.88 17.1538 165.61 16.8862 165.297 16.6609C164.913 16.4073 164.486 16.2102 164.031 16.1116C163.05 15.9003 162.125 16.013 161.456 16.2947C161.997 16.9566 162.694 17.4496 163.562 17.6609C164.373 17.9003 165.311 17.8862 166.165 17.5341C166.293 17.8017 166.435 18.0693 166.563 18.351C166.89 19.0834 167.175 19.844 167.445 20.6468C167.033 20.0693 166.435 19.4637 165.653 19.2102C164.7 18.8862 163.789 18.858 163.078 19.0552C163.917 20.4918 165.724 21.3228 167.545 20.9144C167.701 21.4073 167.872 21.9003 168.014 22.4073C168.156 22.9426 168.27 23.4918 168.384 24.0552C168.057 23.4496 167.573 22.8158 166.862 22.4918C165.937 22.0411 165.07 21.9003 164.33 21.9989C164.942 23.52 166.634 24.5623 168.469 24.4214C168.626 25.2383 168.74 26.0693 168.782 26.9285C168.782 27.1538 168.797 27.3792 168.811 27.5904C168.597 26.9566 168.156 26.2947 167.573 25.8721C166.72 25.2947 165.866 25.0411 165.141 25.0411C165.326 25.858 165.838 26.5341 166.478 27.0693C167.132 27.5764 167.929 27.9426 168.825 28.013C168.839 29.0552 168.768 30.0834 168.583 31.1257C168.484 30.4778 168.199 29.7735 167.701 29.2806C166.99 28.5764 166.151 28.182 165.439 28.0693C165.525 28.8721 165.838 29.5904 166.421 30.2383C166.933 30.8299 167.644 31.351 168.512 31.6045C168.313 32.5904 168.014 33.5764 167.644 34.52C167.659 33.8862 167.545 33.182 167.146 32.6045C166.606 31.7595 165.88 31.2242 165.198 30.9707C165.013 32.4214 165.852 34.1538 167.431 35.0271C167.289 35.3651 167.175 35.7313 167.004 36.0552C166.72 36.6327 166.393 37.1679 166.065 37.7031C166.193 37.0975 166.179 36.3933 165.937 35.7876C165.539 34.858 164.956 34.182 164.33 33.8017C164.188 34.182 164.145 34.5764 164.159 34.9707C164.159 35.3651 164.23 35.7735 164.358 36.182C164.6 36.9285 165.055 37.6609 165.738 38.2102C165.425 38.689 165.098 39.1397 164.757 39.5904V37.5482H118.88V40.2242C118.795 40.1116 118.695 40.0271 118.61 39.9144C118.183 39.3792 117.771 38.8017 117.387 38.2102C118.069 37.6609 118.525 36.9285 118.766 36.182C118.909 35.7735 118.98 35.3651 118.966 34.9707C118.966 34.5764 118.937 34.1679 118.795 33.8017C118.183 34.182 117.6 34.844 117.187 35.7876C116.946 36.3933 116.946 37.0975 117.059 37.7031C116.732 37.1679 116.405 36.6186 116.121 36.0552C115.95 35.7313 115.836 35.3651 115.694 35.0271C117.273 34.1538 118.112 32.4214 117.927 30.9707C117.23 31.2242 116.505 31.7595 115.978 32.6045C115.58 33.182 115.466 33.8862 115.48 34.52C115.125 33.5623 114.812 32.5904 114.613 31.6045C115.48 31.351 116.177 30.8299 116.704 30.2383C117.287 29.5904 117.6 28.8862 117.685 28.0693C116.974 28.182 116.135 28.5764 115.424 29.2806C114.926 29.7735 114.641 30.4778 114.542 31.1257C114.357 30.0834 114.286 29.0411 114.3 28.013C115.196 27.9426 115.993 27.5764 116.647 27.0693C117.301 26.5341 117.799 25.844 117.984 25.0411C117.259 25.0411 116.405 25.2947 115.552 25.8721C114.954 26.2947 114.527 26.9566 114.314 27.5904C114.314 27.3651 114.314 27.1538 114.342 26.9285C114.385 26.0834 114.499 25.2383 114.655 24.4214C116.505 24.5623 118.183 23.52 118.795 21.9989C118.055 21.8862 117.187 22.0411 116.263 22.4918C115.552 22.8299 115.068 23.4496 114.741 24.0552C114.855 23.5059 114.968 22.9426 115.111 22.4073C115.253 21.9003 115.424 21.4073 115.58 20.9144C117.401 21.3228 119.207 20.4918 120.047 19.0552C119.335 18.858 118.425 18.8862 117.472 19.2102C116.69 19.4637 116.092 20.0693 115.68 20.6468C115.95 19.858 116.234 19.0834 116.562 18.351C116.69 18.0693 116.818 17.8158 116.96 17.5341C117.828 17.8721 118.752 17.8862 119.563 17.6609C120.431 17.4496 121.128 16.9566 121.668 16.2947C121 16.013 120.075 15.9003 119.094 16.1116C118.638 16.2102 118.212 16.4073 117.828 16.6609C117.515 16.8862 117.244 17.1679 117.017 17.4214C117.444 16.5341 117.899 15.689 118.354 14.9285C118.681 14.4214 119.008 13.9426 119.307 13.4918C119.634 13.0552 119.947 12.6327 120.232 12.2383C120.858 11.4918 121.412 10.8299 121.924 10.3369C122.152 10.0975 122.351 9.9003 122.55 9.7172C123.276 9.74537 124.257 9.60452 125.054 9.09748C125.936 8.52002 126.59 7.84396 126.932 7.1679C125.054 6.78762 123.162 7.85804 122.536 9.63269C122.323 9.80171 122.095 9.99889 121.853 10.2383C121.313 10.7031 120.73 11.3369 120.061 12.0693C119.748 12.4496 119.421 12.858 119.065 13.2947C118.738 13.7313 118.411 14.2242 118.055 14.7172C117.543 15.5059 117.045 16.3933 116.562 17.3369C116.747 16.6186 116.875 15.5764 116.661 14.6468C116.377 13.6045 116.035 12.7454 115.523 12.2102C114.911 13.1679 114.783 14.2665 114.968 15.182C115.182 16.1256 115.751 16.8862 116.562 17.351C116.419 17.6186 116.277 17.8721 116.149 18.1679C115.779 18.9285 115.452 19.7454 115.153 20.5904C115.239 19.8721 115.182 18.9285 114.883 18.0975C114.485 17.1116 113.987 16.2947 113.432 15.8299C112.522 17.9003 113.375 20.0834 115.096 20.7595C114.926 21.2524 114.741 21.7595 114.598 22.2806C114.442 22.8721 114.314 23.4778 114.186 24.0975C114.158 23.3933 113.973 22.4918 113.574 21.7454C113.062 20.8158 112.436 20.0693 111.825 19.6749C111.213 21.858 112.337 23.9003 114.129 24.3369C113.958 25.1679 113.83 26.0271 113.788 26.9003C113.773 27.1538 113.759 27.4214 113.745 27.689C113.574 27.013 113.304 26.1961 112.792 25.5341C112.152 24.689 111.455 24.0271 110.772 23.7313C110.701 24.3088 110.743 24.858 110.843 25.3651C110.971 25.8721 111.199 26.351 111.483 26.7313C112.01 27.4778 112.849 27.9426 113.745 28.0271C113.717 29.1397 113.788 30.2665 113.987 31.351C113.688 30.7313 113.261 30.013 112.664 29.4637C111.867 28.7313 111.085 28.1961 110.359 27.9989C110.374 29.1679 110.9 30.2383 111.583 30.9003C112.28 31.5482 113.162 31.8299 114.058 31.7454C114.3 32.9285 114.684 34.0552 115.139 35.1397C114.727 34.5482 114.072 33.8299 113.318 33.3651C112.365 32.8299 111.483 32.4496 110.743 32.3933C111.327 34.7595 113.46 35.9003 115.21 35.2947C115.367 35.6468 115.48 36.013 115.651 36.3369C116.049 37.0975 116.476 37.8299 116.946 38.52C116.405 37.9989 115.637 37.351 114.712 37.0411C113.717 36.6749 112.749 36.4778 112.009 36.5904C112.28 37.1116 112.593 37.5904 112.991 37.9566C113.389 38.3228 113.83 38.5904 114.286 38.7735C115.196 39.1116 116.177 39.0271 116.988 38.5764C117.387 39.1679 117.799 39.7595 118.24 40.2947C118.482 40.5764 118.724 40.8299 118.98 41.0975V41.2806C118.397 40.9003 117.6 40.5341 116.803 40.3933C115.722 40.2383 114.769 40.2102 114.072 40.4496C114.399 40.9426 114.84 41.3088 115.281 41.6045C115.722 41.9003 116.206 42.0834 116.69 42.1679C117.529 42.3088 118.311 42.1397 118.98 41.7172V43.351C118.098 43.3933 117.301 43.5482 116.732 43.858C117.159 44.2524 117.628 44.5623 118.098 44.7735C118.382 44.8862 118.681 44.9566 118.966 45.013V46.9848H164.842V44.8721C164.956 44.8299 165.084 44.8158 165.198 44.7595C165.681 44.5482 166.151 44.2383 166.577 43.844C166.122 43.5904 165.525 43.4496 164.842 43.3792V41.9707C165.397 42.1961 165.994 42.2665 166.634 42.1679C167.118 42.0975 167.602 41.9003 168.043 41.6045C168.484 41.3088 168.925 40.9426 169.252 40.4496C168.555 40.2102 167.587 40.2383 166.521 40.3933C165.937 40.5059 165.354 40.7313 164.842 40.9989V40.5482C164.913 40.4637 164.998 40.3933 165.07 40.2947C165.511 39.7595 165.923 39.1679 166.321 38.5764C167.132 39.0271 168.1 39.1116 169.024 38.7735C169.479 38.6045 169.92 38.3228 170.319 37.9566C170.703 37.5904 171.03 37.1116 171.3 36.5904C170.561 36.4918 169.607 36.6749 168.597 37.0411C167.673 37.351 166.905 37.9989 166.364 38.52C166.834 37.8158 167.26 37.0975 167.659 36.3369C167.829 35.9989 167.957 35.6327 168.1 35.2947C169.849 35.9003 171.983 34.7595 172.566 32.3933C171.827 32.4496 170.945 32.8299 169.992 33.3651C169.223 33.8299 168.569 34.5341 168.171 35.1397L168 35.1257ZM126.477 45.2524H126.149C125.936 45.2524 125.794 45.1397 125.751 44.9144L125.509 43.8017H124.286L124.044 44.9144C124.001 45.1397 123.873 45.2524 123.646 45.2524H123.319C123.063 45.2524 122.92 45.1116 122.977 44.844L124.101 39.6468C124.158 39.4355 124.286 39.3228 124.513 39.3228H125.282C125.509 39.3228 125.651 39.4355 125.694 39.6468L126.818 44.844C126.875 45.0975 126.747 45.2524 126.477 45.2524ZM130.773 41.013C130.773 41.2524 130.63 41.3792 130.403 41.3792H130.047C129.805 41.3792 129.677 41.2383 129.677 41.013V40.7876C129.677 40.4637 129.492 40.2383 129.051 40.2383C128.61 40.2383 128.44 40.4496 128.44 40.7876V43.8017C128.44 44.1257 128.61 44.351 129.051 44.351C129.492 44.351 129.677 44.1397 129.677 43.8017V43.5904C129.677 43.351 129.805 43.2102 130.047 43.2102H130.403C130.645 43.2102 130.773 43.351 130.773 43.5904V43.844C130.773 44.7172 130.204 45.3369 129.037 45.3369C127.871 45.3369 127.316 44.7172 127.316 43.844V40.7313C127.316 39.858 127.871 39.2383 129.037 39.2383C130.204 39.2383 130.773 39.858 130.773 40.7313V41.013ZM134.898 41.013C134.898 41.2524 134.756 41.3792 134.528 41.3792H134.172C133.931 41.3792 133.803 41.2383 133.803 41.013V40.7876C133.803 40.4637 133.618 40.2383 133.177 40.2383C132.736 40.2383 132.565 40.4496 132.565 40.7876V43.8017C132.565 44.1257 132.736 44.351 133.177 44.351C133.618 44.351 133.803 44.1397 133.803 43.8017V43.5904C133.803 43.351 133.931 43.2102 134.172 43.2102H134.528C134.77 43.2102 134.898 43.351 134.898 43.5904V43.844C134.898 44.7172 134.329 45.3369 133.162 45.3369C131.996 45.3369 131.441 44.7172 131.441 43.844V40.7313C131.441 39.858 131.996 39.2383 133.162 39.2383C134.329 39.2383 134.898 39.858 134.898 40.7313V41.013ZM139.094 41.6045C139.094 42.1679 138.853 42.6327 138.369 42.8862L139.08 44.8299C139.18 45.0834 139.052 45.2665 138.781 45.2665H138.355C138.127 45.2665 137.985 45.1679 137.914 44.9426L137.302 43.0975H136.847V44.8862C136.847 45.1257 136.705 45.2524 136.477 45.2524H136.121C135.879 45.2524 135.751 45.1257 135.751 44.8862V39.7031C135.751 39.4637 135.879 39.3369 136.121 39.3369H137.373C138.54 39.3369 139.094 39.9566 139.094 40.8299V41.6186V41.6045ZM142.892 39.9144C142.892 40.1538 142.75 40.2806 142.523 40.2806H141.086V41.7735H142.267C142.508 41.7735 142.636 41.9144 142.636 42.1397V42.351C142.636 42.5904 142.508 42.7172 142.267 42.7172H141.086V44.2947H142.523C142.764 44.2947 142.892 44.4214 142.892 44.6609V44.8721C142.892 45.1116 142.75 45.2383 142.523 45.2383H140.36C140.119 45.2383 139.991 45.1116 139.991 44.8721V39.689C139.991 39.4496 140.119 39.3228 140.36 39.3228H142.523C142.764 39.3228 142.892 39.4637 142.892 39.689V39.9003V39.9144ZM147.06 43.7735C147.06 44.6468 146.491 45.2524 145.325 45.2524H143.988C143.746 45.2524 143.618 45.1257 143.618 44.8862V39.7031C143.618 39.4637 143.746 39.3369 143.988 39.3369H145.325C146.491 39.3369 147.06 39.9566 147.06 40.8299V43.7876V43.7735ZM149.095 44.8862C149.095 45.1257 148.967 45.2524 148.725 45.2524H148.355C148.113 45.2524 147.985 45.1257 147.985 44.8862V39.7031C147.985 39.4637 148.113 39.3369 148.355 39.3369H148.725C148.967 39.3369 149.095 39.4778 149.095 39.7031V44.8862ZM152.935 39.9144C152.935 40.1538 152.807 40.2806 152.566 40.2806H151.854V44.8862C151.854 45.1257 151.726 45.2524 151.485 45.2524H151.115C150.873 45.2524 150.731 45.1257 150.731 44.8862V40.2806H150.019C149.777 40.2806 149.649 40.1397 149.649 39.9144V39.7031C149.649 39.4637 149.777 39.3369 150.019 39.3369H152.58C152.822 39.3369 152.95 39.4778 152.95 39.7031V39.9144H152.935ZM156.392 39.9144C156.392 40.1538 156.25 40.2806 156.022 40.2806H154.586V41.7735H155.766C156.008 41.7735 156.136 41.9144 156.136 42.1397V42.351C156.136 42.5904 156.008 42.7172 155.766 42.7172H154.586V44.2947H156.022C156.264 44.2947 156.392 44.4214 156.392 44.6609V44.8721C156.392 45.1116 156.25 45.2383 156.022 45.2383H153.86C153.618 45.2383 153.49 45.1116 153.49 44.8721V39.689C153.49 39.4496 153.618 39.3228 153.86 39.3228H156.022C156.264 39.3228 156.392 39.4637 156.392 39.689V39.9003V39.9144ZM160.56 43.7735C160.56 44.6468 159.991 45.2524 158.825 45.2524H157.488C157.246 45.2524 157.118 45.1257 157.118 44.8862V39.7031C157.118 39.4637 157.246 39.3369 157.488 39.3369H158.825C159.991 39.3369 160.56 39.9566 160.56 40.8299V43.7876V43.7735Z" fill="#1D1E1C"/>
<path d="M164.984 8.85783C164.557 9.47755 164.329 10.379 164.216 11.4353C164.116 12.4071 164.401 13.4071 164.671 14.0973C166.193 13.0128 166.492 10.6466 164.984 8.84375V8.85783Z" fill="#1D1E1C"/>
<path d="M164.316 14.3381C163.789 13.7888 162.893 13.2817 161.983 13.2113C160.973 13.155 160.077 13.3944 159.465 13.7747C160.66 14.9015 162.666 15.2536 164.316 14.3381Z" fill="#1D1E1C"/>
<path d="M162.382 11.1684C163.036 10.5064 163.392 9.59094 163.292 8.64728C163.235 7.67545 162.694 6.67545 161.813 5.88672C161.514 6.56278 161.428 7.53461 161.514 8.59094C161.571 9.57686 162.026 10.5205 162.382 11.1684Z" fill="#1D1E1C"/>
<path d="M157.231 11.6754C158.526 12.5628 160.56 12.5768 162.053 11.4501C161.456 10.9853 160.489 10.6191 159.578 10.7036C158.554 10.8304 157.757 11.1966 157.217 11.6754H157.231Z" fill="#1D1E1C"/>
<path d="M118.297 14.0988C118.568 13.4087 118.852 12.4087 118.753 11.4368C118.639 10.3805 118.411 9.46501 117.984 8.85938C116.477 10.6622 116.775 13.0143 118.297 14.1129V14.0988Z" fill="#1D1E1C"/>
<path d="M123.503 13.7747C122.891 13.3944 121.995 13.155 120.985 13.2113C120.075 13.2677 119.179 13.7888 118.652 14.3381C120.302 15.2536 122.322 14.9015 123.503 13.7747Z" fill="#1D1E1C"/>
<path d="M121.455 8.59094C121.54 7.53461 121.455 6.56278 121.156 5.88672C120.26 6.67545 119.734 7.67545 119.677 8.64728C119.577 9.59094 119.933 10.5064 120.587 11.1684C120.957 10.5205 121.398 9.57686 121.455 8.59094Z" fill="#1D1E1C"/>
<path d="M125.722 11.6754C125.182 11.1966 124.385 10.8304 123.361 10.7036C122.465 10.6191 121.483 10.9853 120.886 11.4501C122.379 12.5768 124.428 12.5628 125.708 11.6754H125.722Z" fill="#1D1E1C"/>
<path d="M126.932 35.2806L127.601 33.2524H133.76L134.429 35.2806H139.109L133.319 19.7031H128.013L122.423 35.2806H126.932ZM129.891 26.0412C130.019 25.6045 130.275 24.7735 130.645 23.5764C130.73 23.9707 130.986 24.7876 131.399 26.0412L132.565 29.6327H128.739L129.891 26.0412Z" fill="#1D1E1C"/>
<path d="M146.691 22.5778H143.888V19.7891H141.982V22.5778H139.151V24.3243H141.982V27.0989H143.888V24.3243H146.691V22.5778Z" fill="#1D1E1C"/>
<path d="M153.305 19.7891H151.399V22.5778H148.568V24.3243H151.399V27.0989H153.305V24.3243H156.108V22.5778H153.305V19.7891Z" fill="#1D1E1C"/>
<path d="M130.688 11.6335H130.702L132.722 17.2954H134.6V9.21094H133.077V14.7461H133.063L131.072 9.21094H129.18V17.2954H130.688V11.6335Z" fill="#1D1E1C"/>
<path d="M137.259 15.5912H139.436L139.82 17.2954H141.527L139.364 9.21094H137.33L135.168 17.2954H136.889L137.273 15.5912H137.259ZM138.326 10.6194H138.354L139.137 14.2532H137.544L138.326 10.6194Z" fill="#1D1E1C"/>
<path d="M143.931 15.5912H146.108L146.492 17.2954H148.213L146.051 9.21094H144.017L141.854 17.2954H143.576L143.96 15.5912H143.931ZM145.012 10.6194H145.041L145.823 14.2532H144.23L145.012 10.6194Z" fill="#1D1E1C"/>
<path d="M148.74 16.282C148.939 16.6482 149.209 16.944 149.579 17.1411C149.949 17.3524 150.432 17.451 151.058 17.451C151.599 17.451 152.04 17.3665 152.381 17.1975C152.723 17.0285 152.979 16.789 153.164 16.4933C153.348 16.1975 153.477 15.8454 153.548 15.451C153.619 15.0566 153.647 14.6482 153.647 14.2116H151.997C151.997 14.6482 151.969 15.0003 151.912 15.2679C151.855 15.5355 151.784 15.7468 151.698 15.8876C151.613 16.0285 151.499 16.1271 151.371 16.1834C151.243 16.2257 151.115 16.2538 150.959 16.2538C150.788 16.2538 150.631 16.2116 150.489 16.1411C150.361 16.0707 150.247 15.9299 150.162 15.7186C150.077 15.5073 150.006 15.2257 149.963 14.8454C149.92 14.4651 149.906 13.9721 149.906 13.3665C149.906 12.789 149.92 12.3102 149.949 11.9158C149.977 11.5214 150.034 11.1975 150.105 10.958C150.176 10.7186 150.29 10.5355 150.418 10.4228C150.546 10.3102 150.717 10.2538 150.93 10.2538C151.3 10.2538 151.556 10.3947 151.698 10.6623C151.841 10.9299 151.912 11.3524 151.912 11.944H153.562C153.562 11.6482 153.548 11.3383 153.505 11.0003C153.462 10.6623 153.363 10.3524 153.192 10.0566C153.021 9.76087 152.765 9.52143 152.438 9.33833C152.097 9.15523 151.641 9.05664 151.044 9.05664C150.432 9.05664 149.934 9.15523 149.565 9.3665C149.195 9.57777 148.924 9.85946 148.725 10.2257C148.526 10.5919 148.412 11.0426 148.341 11.5496C148.284 12.0707 148.256 12.6341 148.256 13.2397C148.256 13.8454 148.284 14.4088 148.341 14.9299C148.398 15.451 148.526 15.8876 148.725 16.2538L148.74 16.282Z" fill="#1D1E1C"/>
<path d="M143.291 31.0268H143.646C143.888 31.0268 144.016 30.9001 144.016 30.6606V30.6043C144.016 29.731 143.447 29.1113 142.281 29.1113C141.114 29.1113 140.56 29.731 140.56 30.6043V33.7451C140.56 34.5761 141.001 35.1958 141.968 35.1958C142.651 35.1958 142.921 34.7592 142.964 34.6184V34.7733C142.964 35.0127 143.092 35.1395 143.333 35.1395H143.632C143.874 35.1395 144.002 35.0127 144.002 34.7733V32.1818C144.002 31.9423 143.86 31.8156 143.632 31.8156H142.75C142.508 31.8156 142.38 31.9564 142.38 32.1818V32.393C142.38 32.6325 142.508 32.7592 142.75 32.7592H142.907V33.6747C142.907 33.9987 142.708 34.224 142.281 34.224C141.854 34.224 141.669 34.0127 141.669 33.6747V30.6606C141.669 30.3367 141.84 30.1113 142.281 30.1113C142.722 30.1113 142.907 30.3226 142.907 30.6465V30.7029C142.907 30.9001 143.035 31.0268 143.277 31.0268H143.291Z" fill="#1D1E1C"/>
<path d="M148.327 31.479V30.6902C148.327 29.8029 147.772 29.1973 146.591 29.1973H145.34C145.098 29.1973 144.97 29.3381 144.97 29.5635V34.7606C144.97 35.0001 145.098 35.1268 145.34 35.1268H145.695C145.937 35.1268 146.065 35.0001 146.065 34.7606V32.9578H146.52L147.132 34.8029C147.217 35.0283 147.345 35.1268 147.573 35.1268H148C148.27 35.1268 148.398 34.9578 148.298 34.6902L147.587 32.7466C148.071 32.493 148.313 32.0423 148.313 31.4649L148.327 31.479ZM147.217 31.4649C147.217 31.7888 147.047 32.0001 146.591 32.0001H146.079V30.155H146.591C147.032 30.155 147.217 30.3663 147.217 30.6902V31.4649Z" fill="#1D1E1C"/>
<path d="M151.128 29.1973H150.36C150.133 29.1973 150.005 29.3099 149.948 29.5212L148.824 34.7325C148.767 34.986 148.909 35.1409 149.165 35.1409H149.493C149.72 35.1409 149.848 35.0283 149.891 34.8029L150.133 33.6902H151.356L151.598 34.8029C151.641 35.0283 151.783 35.1409 151.996 35.1409H152.323C152.594 35.1409 152.722 35.0001 152.665 34.7325L151.541 29.5212C151.498 29.3099 151.356 29.1973 151.128 29.1973ZM150.318 32.7466L150.346 32.5916C150.602 31.3381 150.673 30.817 150.73 30.2677C150.773 30.8311 150.858 31.324 151.114 32.5916L151.143 32.7466H150.303H150.318Z" fill="#1D1E1C"/>
<path d="M153.718 29.1957C153.476 29.1957 153.348 29.3366 153.348 29.5619V34.7591C153.348 34.9985 153.476 35.1253 153.718 35.1253H155.069C156.235 35.1253 156.804 34.5056 156.804 33.6323V30.6746C156.804 29.7873 156.235 29.1816 155.069 29.1816H153.718V29.1957ZM155.695 30.6887V33.6323C155.695 33.9563 155.51 34.1816 155.069 34.1816H154.457V30.1535H155.069C155.51 30.1535 155.695 30.3647 155.695 30.6887Z" fill="#1D1E1C"/>
<path d="M160.262 30.1546C160.503 30.1546 160.631 30.0138 160.631 29.7884V29.5771C160.631 29.3377 160.489 29.2109 160.262 29.2109H158.099C157.858 29.2109 157.729 29.3518 157.729 29.5771V34.7743C157.729 35.0138 157.858 35.1405 158.099 35.1405H160.262C160.503 35.1405 160.631 35.0138 160.631 34.7743V34.5631C160.631 34.3236 160.489 34.1969 160.262 34.1969H158.825V32.6194H160.006C160.247 32.6194 160.375 32.4785 160.375 32.2532V32.0419C160.375 31.8025 160.247 31.6757 160.006 31.6757H158.825V30.1828H160.262V30.1546Z" fill="#1D1E1C"/>
<path d="M145.339 40.2812H144.728V44.3094H145.339C145.78 44.3094 145.965 44.0982 145.965 43.7601V40.8165C145.965 40.4925 145.78 40.2812 145.339 40.2812Z" fill="#1D1E1C"/>
<path d="M137.373 40.2812H136.861V42.1263H137.373C137.814 42.1263 137.999 41.9151 137.999 41.5911V40.8165C137.999 40.4925 137.829 40.2812 137.373 40.2812Z" fill="#1D1E1C"/>
<path d="M124.898 40.3945C124.841 40.9438 124.77 41.465 124.514 42.7185L124.485 42.8734H125.325L125.296 42.7185C125.04 41.4509 124.955 40.9579 124.912 40.3945H124.898Z" fill="#1D1E1C"/>
<path d="M158.825 40.2812H158.213V44.3094H158.825C159.266 44.3094 159.45 44.0982 159.45 43.7601V40.8165C159.45 40.4925 159.266 40.2812 158.825 40.2812Z" fill="#1D1E1C"/>
<path d="M229.382 1.50704C229.538 0.971831 229.667 0.56338 229.809 0.084507C230.079 0.71831 230.349 1.30986 230.662 2.01408C230.947 1.53521 231.16 1.16901 231.445 0.71831C231.544 1.42254 231.644 2.05634 231.758 2.83099C232.142 2.46479 232.44 2.19718 232.825 1.83099C232.768 2.53521 232.711 3.12676 232.654 3.85915C233.109 3.60563 233.479 3.40845 233.948 3.15493C233.692 3.8169 233.465 4.38028 233.166 5.11268C233.721 4.97183 234.147 4.85915 234.674 4.73239C234.247 5.29577 233.863 5.80282 233.379 6.42254C233.877 6.46479 234.261 6.50704 234.788 6.5493C234.261 6.95775 233.82 7.30986 233.28 7.73239C233.778 7.91549 234.176 8.05634 234.645 8.22535C234.005 8.49296 233.436 8.73239 232.739 9.01408C233.18 9.29577 233.536 9.50704 234.019 9.8169C233.28 9.91549 232.668 10 232.071 10.0845C232.042 10.1408 231.999 10.1972 231.971 10.2535C232.355 10.493 232.725 10.7465 233.109 10.9859C233.052 11.0563 232.981 11.1268 232.924 11.1972C232.298 11.1127 231.658 11.0423 230.876 10.9437C231.132 11.4366 231.345 11.8169 231.587 12.2817C230.918 12.0141 230.321 11.7746 229.624 11.493C229.752 12.0282 229.851 12.4225 229.979 12.9577C229.382 12.5211 228.898 12.169 228.301 11.7324V13.2817C227.789 12.6479 227.39 12.1408 226.921 11.5775C226.765 12.0704 226.637 12.4507 226.48 12.9577C226.196 12.2958 225.954 11.7606 225.669 11.0845C225.385 11.5352 225.143 11.8873 224.844 12.338C224.745 11.6338 224.673 11.0563 224.574 10.2958C224.19 10.6056 223.877 10.8592 223.464 11.2113C223.55 10.5211 223.621 9.91549 223.706 9.19718C223.208 9.46479 222.824 9.66197 222.369 9.91549C222.625 9.26761 222.853 8.70423 223.137 7.98592C222.625 8.09859 222.255 8.16901 221.7 8.28169C222.156 7.67606 222.511 7.19718 222.966 6.59155H221.444C222.056 6.11268 222.497 5.74648 223.052 5.30986C222.525 5.14085 222.113 5 221.643 4.84507C222.269 4.59155 222.853 4.35211 223.578 4.05634C223.109 3.76056 222.767 3.53521 222.284 3.23944C223.023 3.14085 223.635 3.07042 224.403 2.97183C224.005 2.56338 223.72 2.25352 223.365 1.90141C224.076 1.97183 224.688 2.02817 225.427 2.09859C225.171 1.6338 224.972 1.25352 224.716 0.788732C225.385 1.07042 225.954 1.29577 226.665 1.59155C226.551 1.05634 226.466 0.647887 226.366 0.126761C226.907 0.535211 227.419 0.915493 228.045 1.38028V0.084507C228.045 0.084507 228.13 0.028169 228.173 0C228.557 0.464789 228.941 0.943662 229.396 1.50704H229.382Z" fill="#1D1E1C"/>
<path d="M197.916 42.7606C197.916 41.7324 197.916 40.7747 197.916 39.831C197.916 39.3099 198.357 39.324 198.641 39.2536C200.135 38.8592 201.615 38.4367 203.122 38.1831C207.205 37.5071 211.302 37.493 215.413 37.986C218.699 38.3803 221.957 38.9578 225.058 40.0423C226.779 40.6479 228.258 40.6761 229.98 40.0423C231.914 39.3381 233.991 38.9437 236.025 38.5493C237.875 38.1972 239.752 37.9578 241.644 37.8029C243.351 37.662 245.087 37.6338 246.808 37.662C250.293 37.7324 253.722 38.2536 257.079 39.2677C257.534 39.4085 257.747 39.6057 257.719 40.1268C257.676 40.986 257.719 41.8451 257.719 42.7606C256.367 42.4367 255.087 42.0986 253.807 41.8169C249.881 40.9719 245.883 40.5916 241.872 40.7184C237.32 40.8592 232.825 41.5071 228.443 42.7888C227.376 43.0986 226.423 42.7043 225.456 42.4507C222.597 41.7043 219.695 41.1409 216.736 40.9437C215.698 40.8733 214.659 40.7324 213.606 40.7043C208.386 40.5916 203.279 41.2254 198.272 42.7043C198.186 42.7324 198.115 42.7324 197.944 42.7606H197.916Z" fill="#1D1E1C"/>
<path d="M197.888 43.9303C198.016 43.8599 198.158 43.7613 198.3 43.7332C200.875 43.2543 203.45 42.6627 206.053 42.3388C208.357 42.043 210.69 41.9444 213.023 41.9444C217.817 41.9585 222.497 42.7332 227.078 44.1698C227.434 44.2825 227.903 44.2684 228.273 44.1557C231.032 43.2965 233.849 42.6768 236.723 42.2825C240.393 41.7895 244.077 41.7895 247.747 42.0712C250.962 42.3247 254.12 42.9163 257.221 43.7754C257.406 43.8318 257.577 43.9585 257.747 44.0571C257.719 44.1134 257.691 44.1839 257.676 44.2402C256.894 44.043 256.112 43.8036 255.315 43.6627C252.897 43.2543 250.478 42.8036 248.046 42.5219C246.339 42.3106 244.618 42.2543 242.896 42.2684C237.889 42.2965 232.967 42.9585 228.202 44.5501C227.889 44.6627 227.462 44.6627 227.149 44.5501C224.389 43.6487 221.573 43.0289 218.699 42.6909C215.513 42.3106 212.312 42.1839 209.111 42.4937C206.565 42.7472 204.019 43.0853 201.472 43.4374C200.548 43.5641 199.652 43.8177 198.727 44.0008C198.485 44.0571 198.229 44.0994 197.973 44.1416C197.945 44.0712 197.916 44.0149 197.902 43.9444L197.888 43.9303Z" fill="#1D1E1C"/>
<path d="M261.248 15.7034C260.494 15.7034 259.825 15.7034 259.142 15.7034C257.748 15.6893 257.748 15.6753 257.834 14.3091C257.89 13.295 258.388 12.6471 259.398 12.5626C260.38 12.4781 261.39 12.5344 262.386 12.6471C262.926 12.7034 263.14 12.6048 263.324 12.0978C263.794 10.8302 264.349 9.60483 264.861 8.35131C265.017 7.98511 264.733 7.88652 264.477 7.83018C261.561 7.16821 258.573 6.95694 255.671 7.60483C252.129 8.37948 250.636 9.85835 250.38 13.2809C250.323 14.1119 250.28 14.9569 250.237 15.8161C247.734 16.126 245.543 16.9147 244.419 19.4499C244.376 19.4217 244.32 19.3795 244.277 19.3513V15.2809H237.207V35.2245H244.874C244.874 34.9569 244.874 34.7175 244.874 34.4781C244.874 31.9288 244.86 29.3795 244.903 26.8302C244.917 25.5626 245.017 24.2809 245.6 23.1119C246.539 21.2245 248.388 20.9851 250.308 20.633V35.2245H257.777C257.777 34.9147 257.777 34.6612 257.777 34.4076C257.777 30.0555 257.777 25.7175 257.762 21.3654C257.762 20.7738 257.933 20.5203 258.545 20.6189C259.028 20.7034 259.256 20.5062 259.441 20.0414C259.996 18.6189 260.636 17.2245 261.276 15.7175L261.248 15.7034ZM205.044 15.2245H197.945V35.1823H205.584C205.584 34.9006 205.584 34.6612 205.584 34.4217C205.584 31.3513 205.556 28.2809 205.613 25.2105C205.627 24.295 205.798 23.3513 206.096 22.4922C206.58 21.0837 207.931 20.4358 209.454 20.7034C210.705 20.9288 211.502 21.9288 211.516 23.464C211.545 27.1119 211.545 30.7738 211.559 34.4217C211.559 34.6753 211.587 34.9288 211.587 35.1682H219.24C219.255 34.9569 219.283 34.7879 219.283 34.6189C219.283 30.4922 219.283 26.3654 219.283 22.2386C219.283 21.4499 219.212 20.633 219.056 19.8584C218.43 16.9288 216.652 15.1823 213.92 14.8161C210.577 14.3654 207.704 15.2668 205.542 17.9429C205.428 18.0837 205.3 18.1964 205.058 18.4499V15.1964L205.044 15.2245ZM233.309 37.5203V15.3513H223.096V37.6753C224.475 35.2245 225.855 32.9288 228.202 31.1964C229.127 32.2105 230.08 33.1823 230.934 34.2386C231.787 35.2809 232.527 36.4217 233.323 37.5203H233.309Z" fill="#1D1E1C"/>
<path d="M261.247 15.7038C260.592 17.2109 259.967 18.6052 259.412 20.0278C259.227 20.5066 258.999 20.6897 258.516 20.6052C257.904 20.5066 257.733 20.7602 257.733 21.3517C257.762 25.7038 257.747 30.0419 257.747 34.394C257.747 34.6475 257.747 34.901 257.747 35.2109H250.279V20.6193C248.373 20.9714 246.524 21.2109 245.571 23.0982C244.987 24.2672 244.888 25.5489 244.874 26.8165C244.831 29.3658 244.859 31.9151 244.845 34.4644C244.845 34.7038 244.845 34.9292 244.845 35.2109H237.178V15.2672H244.248V19.3376C244.248 19.3376 244.347 19.4081 244.39 19.4362C245.514 16.901 247.704 16.1123 250.208 15.8024C250.251 14.9292 250.293 14.0982 250.35 13.2672C250.606 9.84468 252.1 8.3658 255.642 7.59116C258.558 6.94327 261.531 7.15454 264.448 7.81651C264.704 7.87285 264.988 7.97144 264.832 8.33764C264.319 9.59116 263.765 10.8165 263.295 12.0841C263.11 12.5912 262.897 12.6897 262.356 12.6334C261.375 12.5207 260.365 12.4785 259.369 12.5489C258.359 12.6334 257.861 13.2813 257.804 14.2954C257.719 15.6616 257.719 15.6616 259.113 15.6897C259.782 15.6897 260.464 15.6897 261.218 15.6897L261.247 15.7038Z" fill="#1D1E1C"/>
<path d="M205.043 15.2254V18.479C205.285 18.2254 205.413 18.1128 205.527 17.9719C207.703 15.2959 210.563 14.3945 213.906 14.8452C216.637 15.2114 218.415 16.9578 219.041 19.8874C219.212 20.6621 219.269 21.4649 219.269 22.2677C219.297 26.3945 219.269 30.5212 219.269 34.648C219.269 34.817 219.24 34.986 219.226 35.1973H211.573C211.573 34.9578 211.544 34.7043 211.544 34.4508C211.544 30.8029 211.544 27.1409 211.502 23.4931C211.502 21.9578 210.705 20.9578 209.439 20.7325C207.917 20.4649 206.565 21.1128 206.082 22.5212C205.783 23.3804 205.612 24.324 205.598 25.2395C205.541 28.31 205.57 31.3804 205.57 34.4508C205.57 34.6902 205.57 34.9297 205.57 35.2114H197.931V15.2536H205.029L205.043 15.2254Z" fill="#1D1E1C"/>
<path d="M233.309 37.5206C232.512 36.422 231.773 35.2811 230.919 34.2389C230.066 33.1825 229.113 32.2107 228.188 31.1966C225.841 32.929 224.461 35.2248 223.081 37.6755V15.3516H233.295V37.5206H233.309Z" fill="#1D1E1C"/>
<path d="M303.212 22.1683H298.304L296.896 29.0978H301.803L300.708 34.4218H295.8L293.823 44.0415H287.763L289.74 34.4218H282.485L280.508 44.0415H274.448L276.44 34.4218H271.589L272.684 29.0978H277.535L278.943 22.1683H274.093L275.188 16.8443H280.039L282.016 7.22461H288.076L286.084 16.8443H293.339L295.331 7.22461H301.391L299.413 16.8443H304.321L303.226 22.1683H303.212ZM290.836 29.0978L292.244 22.1683H284.989L283.581 29.0978H290.836Z" fill="#1D1E1C"/>
<path d="M334.379 27.8874C335.46 29.3944 336.001 31.1409 336.001 33.155C336.001 36.4226 334.806 39.0423 332.402 41.0283C329.969 43.0423 326.726 44.0423 322.658 44.0423C318.134 44.0423 314.663 42.9437 312.287 40.7466C309.897 38.5494 308.717 35.493 308.717 31.5635H315.26C315.36 36.1128 317.764 38.3944 322.458 38.3944C324.493 38.3944 326.086 37.9015 327.252 36.9156C328.419 35.9297 329.002 34.5916 329.002 32.9015C329.002 31.0846 328.405 29.6902 327.21 28.6902C326.015 27.7043 324.35 27.2113 322.217 27.2113H319.571V22.3099H322.174C326.342 22.3099 328.419 20.6761 328.419 17.4085C328.419 15.9297 327.878 14.7606 326.811 13.9156C325.744 13.0705 324.279 12.648 322.416 12.648C318.39 12.648 316.27 14.5071 316.071 18.2395H309.57C309.641 14.7043 310.779 11.986 312.999 10.0705C315.218 8.15501 318.376 7.19727 322.473 7.19727C326.299 7.19727 329.343 8.0705 331.591 9.8029C333.839 11.5353 334.962 13.8874 334.962 16.8592C334.962 20.2254 333.298 22.7466 329.969 24.4367C331.833 25.2254 333.312 26.3804 334.393 27.8733L334.379 27.8874Z" fill="#1D1E1C"/>
<path d="M183.05 5.98633H182.709V47.0004H183.05V5.98633Z" fill="#1D1E1C"/>
</g>
<defs>
<clipPath id="clip0_1302_761">
<rect width="336" height="47" fill="white"/>
</clipPath>
</defs>
</svg>
